G04 #@! TF.GenerationSoftware,KiCad,Pcbnew,no-vcs-found-40f60c9~58~ubuntu16.04.1*
G04 #@! TF.CreationDate,2017-03-31T16:30:05+01:00*
G04 #@! TF.ProjectId,bigtime,62696774696D652E6B696361645F7063,rev?*
G04 #@! TF.FileFunction,Soldermask,Top*
G04 #@! TF.FilePolarity,Negative*
%FSLAX46Y46*%
G04 Gerber Fmt 4.6, Leading zero omitted, Abs format (unit mm)*
G04 Created by KiCad (PCBNEW no-vcs-found-40f60c9~58~ubuntu16.04.1) date Fri Mar 31 16:30:05 2017*
%MOMM*%
%LPD*%
G01*
G04 APERTURE LIST*
%ADD10C,0.100000*%
%ADD11R,1.900000X1.900000*%
%ADD12R,1.000000X0.950000*%
%ADD13R,0.950000X1.000000*%
%ADD14R,2.500000X2.300000*%
%ADD15C,0.787000*%
%ADD16C,1.000000*%
%ADD17R,0.600000X0.250000*%
%ADD18R,0.250000X0.600000*%
%ADD19R,1.702000X1.702000*%
%ADD20R,0.300000X1.500000*%
%ADD21R,1.500000X0.300000*%
%ADD22C,2.000000*%
%ADD23C,1.500000*%
%ADD24O,1.200000X1.500000*%
%ADD25C,3.300000*%
%ADD26R,0.900000X0.500000*%
%ADD27R,1.550000X0.600000*%
%ADD28C,1.524000*%
%ADD29R,3.500000X3.500000*%
%ADD30R,0.400000X1.350000*%
%ADD31O,1.000000X1.250000*%
%ADD32R,1.800000X1.900000*%
%ADD33R,1.575000X1.900000*%
%ADD34O,1.000000X1.900000*%
%ADD35R,1.100000X1.900000*%
%ADD36C,4.000000*%
%ADD37R,1.727200X1.727200*%
%ADD38O,1.727200X1.727200*%
%ADD39R,1.150000X1.450000*%
%ADD40R,1.450000X1.150000*%
%ADD41R,2.700000X1.150000*%
%ADD42R,0.640000X1.910000*%
%ADD43R,0.300000X0.700000*%
%ADD44R,2.352000X1.582000*%
%ADD45R,1.700000X2.500000*%
%ADD46C,1.016000*%
%ADD47R,0.300000X0.600000*%
%ADD48R,0.600000X0.300000*%
%ADD49R,0.852000X0.852000*%
%ADD50R,0.230000X0.480000*%
%ADD51R,0.480000X0.230000*%
%ADD52R,1.002000X1.002000*%
%ADD53R,1.100000X0.600000*%
%ADD54R,0.850000X0.950000*%
%ADD55R,1.900000X2.400000*%
%ADD56C,1.850000*%
%ADD57R,2.900000X5.400000*%
%ADD58C,0.600000*%
%ADD59C,6.300000*%
%ADD60R,1.350000X0.450000*%
%ADD61R,2.200000X0.800000*%
G04 APERTURE END LIST*
D10*
D11*
X169940000Y-155990000D03*
X210370000Y-72070000D03*
D12*
X171060000Y-47370000D03*
X171060000Y-48970000D03*
X172610000Y-48940000D03*
X172610000Y-47340000D03*
D13*
X172630000Y-50590000D03*
X171030000Y-50590000D03*
D14*
X211998700Y-48000000D03*
X207698700Y-48000000D03*
D13*
X147240000Y-47490000D03*
X148840000Y-47490000D03*
D15*
X151131000Y-22890000D03*
X152401000Y-22890000D03*
X151131000Y-24160000D03*
X152401000Y-24160000D03*
X151131000Y-25430000D03*
X152401000Y-25430000D03*
D16*
X151766000Y-21620000D03*
X150750000Y-26700000D03*
X152782000Y-26700000D03*
D13*
X177760000Y-71810000D03*
X176160000Y-71810000D03*
X195410000Y-53160000D03*
X193810000Y-53160000D03*
D12*
X202710000Y-74950000D03*
X202710000Y-76550000D03*
X187000000Y-65600000D03*
X187000000Y-67200000D03*
D17*
X177310000Y-74310000D03*
X177310000Y-74810000D03*
X177310000Y-75310000D03*
X177310000Y-75810000D03*
D18*
X177960000Y-76460000D03*
X178460000Y-76460000D03*
X178960000Y-76460000D03*
X179460000Y-76460000D03*
D17*
X180110000Y-75810000D03*
X180110000Y-75310000D03*
X180110000Y-74810000D03*
X180110000Y-74310000D03*
D18*
X179460000Y-73660000D03*
X178960000Y-73660000D03*
X178460000Y-73660000D03*
X177960000Y-73660000D03*
D19*
X178710000Y-75060000D03*
D20*
X154080000Y-63340000D03*
X154580000Y-63340000D03*
X155080000Y-63340000D03*
X155580000Y-63340000D03*
X156080000Y-63340000D03*
X156580000Y-63340000D03*
X157080000Y-63340000D03*
X157580000Y-63340000D03*
X158080000Y-63340000D03*
X158580000Y-63340000D03*
X159080000Y-63340000D03*
X159580000Y-63340000D03*
X160080000Y-63340000D03*
X160580000Y-63340000D03*
X161080000Y-63340000D03*
X161580000Y-63340000D03*
X162080000Y-63340000D03*
X162580000Y-63340000D03*
X163080000Y-63340000D03*
X163580000Y-63340000D03*
X164080000Y-63340000D03*
X164580000Y-63340000D03*
X165080000Y-63340000D03*
X165580000Y-63340000D03*
X166080000Y-63340000D03*
D21*
X167780000Y-61640000D03*
X167780000Y-61140000D03*
X167780000Y-60640000D03*
X167780000Y-60140000D03*
X167780000Y-59640000D03*
X167780000Y-59140000D03*
X167780000Y-58640000D03*
X167780000Y-58140000D03*
X167780000Y-57640000D03*
X167780000Y-57140000D03*
X167780000Y-56640000D03*
X167780000Y-56140000D03*
X167780000Y-55640000D03*
X167780000Y-55140000D03*
X167780000Y-54640000D03*
X167780000Y-54140000D03*
X167780000Y-53640000D03*
X167780000Y-53140000D03*
X167780000Y-52640000D03*
X167780000Y-52140000D03*
X167780000Y-51640000D03*
X167780000Y-51140000D03*
X167780000Y-50640000D03*
X167780000Y-50140000D03*
X167780000Y-49640000D03*
D20*
X166080000Y-47940000D03*
X165580000Y-47940000D03*
X165080000Y-47940000D03*
X164580000Y-47940000D03*
X164080000Y-47940000D03*
X163580000Y-47940000D03*
X163080000Y-47940000D03*
X162580000Y-47940000D03*
X162080000Y-47940000D03*
X161580000Y-47940000D03*
X161080000Y-47940000D03*
X160580000Y-47940000D03*
X160080000Y-47940000D03*
X159580000Y-47940000D03*
X159080000Y-47940000D03*
X158580000Y-47940000D03*
X158080000Y-47940000D03*
X157580000Y-47940000D03*
X157080000Y-47940000D03*
X156580000Y-47940000D03*
X156080000Y-47940000D03*
X155580000Y-47940000D03*
X155080000Y-47940000D03*
X154580000Y-47940000D03*
X154080000Y-47940000D03*
D21*
X152380000Y-49640000D03*
X152380000Y-50140000D03*
X152380000Y-50640000D03*
X152380000Y-51140000D03*
X152380000Y-51640000D03*
X152380000Y-52140000D03*
X152380000Y-52640000D03*
X152380000Y-53140000D03*
X152380000Y-53640000D03*
X152380000Y-54140000D03*
X152380000Y-54640000D03*
X152380000Y-55140000D03*
X152380000Y-55640000D03*
X152380000Y-56140000D03*
X152380000Y-56640000D03*
X152380000Y-57140000D03*
X152380000Y-57640000D03*
X152380000Y-58140000D03*
X152380000Y-58640000D03*
X152380000Y-59140000D03*
X152380000Y-59640000D03*
X152380000Y-60140000D03*
X152380000Y-60640000D03*
X152380000Y-61140000D03*
X152380000Y-61640000D03*
D13*
X191170000Y-53020000D03*
X189570000Y-53020000D03*
D12*
X181760000Y-76260000D03*
X181760000Y-77860000D03*
D22*
X203470000Y-26430000D03*
D23*
X188490000Y-32140000D03*
X190770000Y-32140000D03*
X199920000Y-32140000D03*
X202200000Y-32140000D03*
D24*
X198900000Y-27320000D03*
X196870000Y-27320000D03*
X194840000Y-27320000D03*
X192810000Y-27320000D03*
X195850000Y-25540000D03*
X193820000Y-25540000D03*
X197890000Y-25540000D03*
X191790000Y-25540000D03*
D25*
X189000000Y-23000000D03*
X201700000Y-23000000D03*
D22*
X187220000Y-26430000D03*
D12*
X166390000Y-45240000D03*
X166390000Y-43640000D03*
X167890000Y-43640000D03*
X167890000Y-45240000D03*
D26*
X157480000Y-124980000D03*
X160080000Y-124980000D03*
D27*
X173880000Y-117885000D03*
X173880000Y-116615000D03*
X173880000Y-115345000D03*
X173880000Y-114075000D03*
X168480000Y-114075000D03*
X168480000Y-115345000D03*
X168480000Y-116615000D03*
X168480000Y-117885000D03*
D28*
X162970000Y-118520000D03*
X160430000Y-115980000D03*
X162970000Y-113440000D03*
D13*
X169480000Y-119480000D03*
X167880000Y-119480000D03*
X167880000Y-112480000D03*
X169480000Y-112480000D03*
D12*
X175930000Y-113680000D03*
X175930000Y-115280000D03*
X175930000Y-118280000D03*
X175930000Y-116680000D03*
D29*
X137300000Y-28000000D03*
X142000000Y-25000000D03*
X142000000Y-31000000D03*
D11*
X163210000Y-72160000D03*
X173460000Y-71310000D03*
X199710000Y-75000000D03*
X204640000Y-72240000D03*
D12*
X172250000Y-27550000D03*
X172250000Y-25950000D03*
X152450000Y-67710000D03*
X152450000Y-69310000D03*
X155040000Y-69290000D03*
X155040000Y-67690000D03*
D30*
X170500000Y-23175000D03*
X169850000Y-23175000D03*
X171150000Y-23175000D03*
X171800000Y-23175000D03*
X169200000Y-23175000D03*
D31*
X168275000Y-23500000D03*
X172725000Y-23500000D03*
D32*
X169350000Y-20500000D03*
X171650000Y-20500000D03*
D33*
X167112500Y-20500000D03*
D34*
X166325000Y-20500000D03*
D33*
X173887500Y-20500000D03*
D34*
X174675000Y-20500000D03*
D35*
X152510000Y-71310000D03*
X155010000Y-71310000D03*
D36*
X159840000Y-143500000D03*
X164920000Y-143500000D03*
X170000000Y-143500000D03*
X175080000Y-143500000D03*
X180160000Y-143500000D03*
X180160000Y-36500000D03*
X175080000Y-36500000D03*
X170000000Y-36500000D03*
X164920000Y-36500000D03*
X159840000Y-36500000D03*
D37*
X138000000Y-133000000D03*
D38*
X135460000Y-133000000D03*
X138000000Y-130460000D03*
X135460000Y-130460000D03*
X138000000Y-127920000D03*
X135460000Y-127920000D03*
X201460000Y-127920000D03*
X204000000Y-127920000D03*
X201460000Y-130460000D03*
X204000000Y-130460000D03*
X201460000Y-133000000D03*
D37*
X204000000Y-133000000D03*
D13*
X212930000Y-38000000D03*
X211330000Y-38000000D03*
X211330000Y-34000000D03*
X212930000Y-34000000D03*
X212930000Y-36000000D03*
X211330000Y-36000000D03*
X193530000Y-57540000D03*
X191930000Y-57540000D03*
X198230000Y-36810000D03*
X199830000Y-36810000D03*
X183020000Y-60230000D03*
X181420000Y-60230000D03*
X183020000Y-61730000D03*
X181420000Y-61730000D03*
X176820000Y-124750000D03*
X175220000Y-124750000D03*
D12*
X182480000Y-65580000D03*
X182480000Y-67180000D03*
X183980000Y-67180000D03*
X183980000Y-65580000D03*
X184500000Y-33200000D03*
X184500000Y-34800000D03*
D13*
X152560000Y-43700000D03*
X154160000Y-43700000D03*
D12*
X190010000Y-67200000D03*
X190010000Y-65600000D03*
D13*
X212930000Y-40000000D03*
X211330000Y-40000000D03*
X163320000Y-125000000D03*
X161720000Y-125000000D03*
D12*
X210960000Y-79800000D03*
X210960000Y-78200000D03*
D13*
X163320000Y-126500000D03*
X161720000Y-126500000D03*
X161720000Y-128000000D03*
X163320000Y-128000000D03*
X163320000Y-129500000D03*
X161720000Y-129500000D03*
X176820000Y-126250000D03*
X175220000Y-126250000D03*
X175220000Y-127750000D03*
X176820000Y-127750000D03*
D12*
X209460000Y-78200000D03*
X209460000Y-79800000D03*
X202000000Y-69200000D03*
X202000000Y-70800000D03*
X198750000Y-66800000D03*
X198750000Y-65200000D03*
D13*
X207010000Y-83750000D03*
X205410000Y-83750000D03*
X176820000Y-129250000D03*
X175220000Y-129250000D03*
D12*
X188510000Y-65600000D03*
X188510000Y-67200000D03*
X165730000Y-68630000D03*
X165730000Y-67030000D03*
D13*
X195300000Y-55790000D03*
X193700000Y-55790000D03*
D12*
X167230000Y-67020000D03*
X167230000Y-68620000D03*
D13*
X204910000Y-76750000D03*
X206510000Y-76750000D03*
D12*
X209510000Y-81450000D03*
X209510000Y-83050000D03*
X202210000Y-80200000D03*
X202210000Y-81800000D03*
X150960000Y-67730000D03*
X150960000Y-69330000D03*
D13*
X183050000Y-56900000D03*
X184650000Y-56900000D03*
X179600000Y-56900000D03*
X181200000Y-56900000D03*
D12*
X190330000Y-57720000D03*
X190330000Y-59320000D03*
X164220000Y-67030000D03*
X164220000Y-68630000D03*
X181850000Y-47990000D03*
X181850000Y-49590000D03*
D13*
X191160000Y-56030000D03*
X189560000Y-56030000D03*
D12*
X185500000Y-65600000D03*
X185500000Y-67200000D03*
D13*
X195410000Y-51660000D03*
X193810000Y-51660000D03*
D12*
X158580000Y-67030000D03*
X158580000Y-68630000D03*
X162430000Y-67020000D03*
X162430000Y-68620000D03*
D13*
X189560000Y-54530000D03*
X191160000Y-54530000D03*
X152560000Y-45210000D03*
X154160000Y-45210000D03*
D12*
X170290000Y-61710000D03*
X170290000Y-60110000D03*
X149580000Y-61820000D03*
X149580000Y-60220000D03*
X156730000Y-68670000D03*
X156730000Y-67070000D03*
X160930000Y-68620000D03*
X160930000Y-67020000D03*
D39*
X209530000Y-40000000D03*
X207730000Y-40000000D03*
X207730000Y-38000000D03*
X209530000Y-38000000D03*
X209530000Y-34000000D03*
X207730000Y-34000000D03*
X207730000Y-36000000D03*
X209530000Y-36000000D03*
D40*
X198500000Y-61600000D03*
X198500000Y-63400000D03*
D41*
X199710000Y-78750000D03*
X199710000Y-81750000D03*
D42*
X193695000Y-40365000D03*
X192425000Y-40365000D03*
X191155000Y-40365000D03*
X189885000Y-40365000D03*
X188615000Y-40365000D03*
X187345000Y-40365000D03*
X186075000Y-40365000D03*
X184805000Y-40365000D03*
X184805000Y-49135000D03*
X186075000Y-49135000D03*
X187345000Y-49135000D03*
X188615000Y-49135000D03*
X189885000Y-49135000D03*
X191155000Y-49135000D03*
X192425000Y-49135000D03*
X193695000Y-49135000D03*
D43*
X200000000Y-68525000D03*
X199500000Y-68525000D03*
X199000000Y-68525000D03*
X198500000Y-68525000D03*
X198000000Y-68525000D03*
X198000000Y-71475000D03*
X198500000Y-71475000D03*
X199000000Y-71475000D03*
X199500000Y-71475000D03*
X200000000Y-71475000D03*
D44*
X199000000Y-70000000D03*
D14*
X207502716Y-57000000D03*
X211802716Y-57000000D03*
X204683372Y-43513756D03*
X200383372Y-43513756D03*
X200448700Y-48000000D03*
X204748700Y-48000000D03*
X204552716Y-57000000D03*
X200252716Y-57000000D03*
X207850000Y-43513756D03*
X212150000Y-43513756D03*
X207633372Y-52609644D03*
X211933372Y-52609644D03*
X204683372Y-52609644D03*
X200383372Y-52609644D03*
D45*
X201250000Y-62000000D03*
X201250000Y-66000000D03*
D46*
X159365000Y-21645000D03*
X160635000Y-21645000D03*
X159365000Y-22915000D03*
X160635000Y-22915000D03*
X159365000Y-24185000D03*
X160635000Y-24185000D03*
X159365000Y-25455000D03*
X160635000Y-25455000D03*
X159365000Y-26725000D03*
X160635000Y-26725000D03*
D47*
X204810000Y-82175000D03*
X205310000Y-82175000D03*
X205810000Y-82175000D03*
X206310000Y-82175000D03*
X206810000Y-82175000D03*
D48*
X207735000Y-81250000D03*
X207735000Y-80750000D03*
X207735000Y-80250000D03*
X207735000Y-79750000D03*
X207735000Y-79250000D03*
D47*
X206810000Y-78325000D03*
X206310000Y-78325000D03*
X205810000Y-78325000D03*
X205310000Y-78325000D03*
X204810000Y-78325000D03*
D48*
X203885000Y-79250000D03*
X203885000Y-79750000D03*
X203885000Y-80250000D03*
X203885000Y-80750000D03*
X203885000Y-81250000D03*
D49*
X205245000Y-80815000D03*
X206375000Y-80815000D03*
X205245000Y-79685000D03*
X206375000Y-79685000D03*
D50*
X188290000Y-59290000D03*
X187790000Y-59290000D03*
X187290000Y-59290000D03*
X186790000Y-59290000D03*
X186290000Y-59290000D03*
X185790000Y-59290000D03*
D51*
X185180000Y-59900000D03*
X185180000Y-60400000D03*
X185180000Y-60900000D03*
X185180000Y-61400000D03*
X185180000Y-61900000D03*
X185180000Y-62400000D03*
D50*
X185790000Y-63010000D03*
X186290000Y-63010000D03*
X186790000Y-63010000D03*
X187290000Y-63010000D03*
X187790000Y-63010000D03*
X188290000Y-63010000D03*
D51*
X188900000Y-62400000D03*
X188900000Y-61900000D03*
X188900000Y-61400000D03*
X188900000Y-60900000D03*
X188900000Y-60400000D03*
X188900000Y-59900000D03*
D52*
X187640000Y-60550000D03*
X186440000Y-60550000D03*
X187640000Y-61750000D03*
X186440000Y-61750000D03*
D26*
X194400000Y-59230000D03*
X191800000Y-59230000D03*
D53*
X146200000Y-49150000D03*
X146200000Y-50100000D03*
X146200000Y-51050000D03*
X148800000Y-51050000D03*
X148800000Y-50100000D03*
X148800000Y-49150000D03*
D54*
X158705000Y-70155000D03*
X158705000Y-71605000D03*
X159855000Y-71605000D03*
X159855000Y-70155000D03*
D55*
X180100000Y-54400000D03*
X184200000Y-54400000D03*
D56*
X211730000Y-68040000D03*
D10*
G36*
X210015266Y-68446586D02*
X212136586Y-66325266D01*
X213444734Y-67633414D01*
X211323414Y-69754734D01*
X210015266Y-68446586D01*
X210015266Y-68446586D01*
G37*
D56*
X204550000Y-60860000D03*
D10*
G36*
X202835266Y-61266586D02*
X204956586Y-59145266D01*
X206264734Y-60453414D01*
X204143414Y-62574734D01*
X202835266Y-61266586D01*
X202835266Y-61266586D01*
G37*
D57*
X186360000Y-79750000D03*
X196060000Y-79750000D03*
D58*
X211800000Y-157800000D03*
X208200000Y-157800000D03*
X211800000Y-154200000D03*
X208200000Y-154200000D03*
X207500000Y-156000000D03*
X210000000Y-158500000D03*
X212500000Y-156000000D03*
X210000000Y-153500000D03*
D59*
X210000000Y-156000000D03*
X130000000Y-24000000D03*
D58*
X130000000Y-21500000D03*
X132500000Y-24000000D03*
X130000000Y-26500000D03*
X127500000Y-24000000D03*
X128200000Y-22200000D03*
X131800000Y-22200000D03*
X128200000Y-25800000D03*
X131800000Y-25800000D03*
X131800000Y-157800000D03*
X128200000Y-157800000D03*
X131800000Y-154200000D03*
X128200000Y-154200000D03*
X127500000Y-156000000D03*
X130000000Y-158500000D03*
X132500000Y-156000000D03*
X130000000Y-153500000D03*
D59*
X130000000Y-156000000D03*
X210000000Y-24000000D03*
D58*
X210000000Y-21500000D03*
X212500000Y-24000000D03*
X210000000Y-26500000D03*
X207500000Y-24000000D03*
X208200000Y-22200000D03*
X211800000Y-22200000D03*
X208200000Y-25800000D03*
X211800000Y-25800000D03*
D13*
X179760000Y-78060000D03*
X178160000Y-78060000D03*
D12*
X181710000Y-73010000D03*
X181710000Y-74610000D03*
D13*
X161680000Y-123160000D03*
X163280000Y-123160000D03*
D60*
X166975000Y-124555000D03*
X166975000Y-125205000D03*
X166975000Y-125855000D03*
X166975000Y-126505000D03*
X166975000Y-127155000D03*
X166975000Y-127805000D03*
X166975000Y-128455000D03*
X166975000Y-129105000D03*
X172725000Y-129105000D03*
X172725000Y-128455000D03*
X172725000Y-127805000D03*
X172725000Y-127155000D03*
X172725000Y-126505000D03*
X172725000Y-125855000D03*
X172725000Y-125205000D03*
X172725000Y-124555000D03*
D61*
X174960000Y-73810000D03*
X174960000Y-75810000D03*
M02*
