G04 #@! TF.GenerationSoftware,KiCad,Pcbnew,no-vcs-found-40f60c9~58~ubuntu16.04.1*
G04 #@! TF.CreationDate,2017-03-31T16:30:05+01:00*
G04 #@! TF.ProjectId,bigtime,62696774696D652E6B696361645F7063,rev?*
G04 #@! TF.FileFunction,Legend,Top*
G04 #@! TF.FilePolarity,Positive*
%FSLAX46Y46*%
G04 Gerber Fmt 4.6, Leading zero omitted, Abs format (unit mm)*
G04 Created by KiCad (PCBNEW no-vcs-found-40f60c9~58~ubuntu16.04.1) date Fri Mar 31 16:30:05 2017*
%MOMM*%
%LPD*%
G01*
G04 APERTURE LIST*
%ADD10C,0.100000*%
%ADD11C,0.200000*%
%ADD12C,0.300000*%
%ADD13C,0.400000*%
%ADD14C,0.500000*%
%ADD15C,0.600000*%
%ADD16C,0.150000*%
%ADD17C,0.010000*%
%ADD18C,0.120000*%
%ADD19C,0.254000*%
G04 APERTURE END LIST*
D10*
D11*
X153500000Y-157000000D02*
X153500000Y-157000000D01*
D12*
X135500000Y-152404761D02*
X135500000Y-150404761D01*
X136166666Y-151833333D01*
X136833333Y-150404761D01*
X136833333Y-152404761D01*
X137690476Y-151833333D02*
X138642857Y-151833333D01*
X137500000Y-152404761D02*
X138166666Y-150404761D01*
X138833333Y-152404761D01*
X140642857Y-152214285D02*
X140547619Y-152309523D01*
X140261904Y-152404761D01*
X140071428Y-152404761D01*
X139785714Y-152309523D01*
X139595238Y-152119047D01*
X139500000Y-151928571D01*
X139404761Y-151547619D01*
X139404761Y-151261904D01*
X139500000Y-150880952D01*
X139595238Y-150690476D01*
X139785714Y-150500000D01*
X140071428Y-150404761D01*
X140261904Y-150404761D01*
X140547619Y-150500000D01*
X140642857Y-150595238D01*
X141500000Y-152214285D02*
X141595238Y-152309523D01*
X141500000Y-152404761D01*
X141404761Y-152309523D01*
X141500000Y-152214285D01*
X141500000Y-152404761D01*
X141500000Y-151166666D02*
X141595238Y-151261904D01*
X141500000Y-151357142D01*
X141404761Y-151261904D01*
X141500000Y-151166666D01*
X141500000Y-151357142D01*
X136904761Y-156904761D02*
X136904761Y-155571428D01*
X136904761Y-155952380D02*
X137000000Y-155761904D01*
X137095238Y-155666666D01*
X137285714Y-155571428D01*
X137476190Y-155571428D01*
X139190476Y-156904761D02*
X138047619Y-156904761D01*
X138619047Y-156904761D02*
X138619047Y-154904761D01*
X138428571Y-155190476D01*
X138238095Y-155380952D01*
X138047619Y-155476190D01*
D13*
X175000000Y-84500000D02*
X151000000Y-84500000D01*
X175000000Y-91000000D02*
X175000000Y-84500000D01*
X151000000Y-91000000D02*
X175000000Y-91000000D01*
X151000000Y-84500000D02*
X151000000Y-91000000D01*
D11*
X206700000Y-132700000D02*
X207500000Y-132700000D01*
X206700000Y-128200000D02*
X206700000Y-132700000D01*
X207500000Y-128200000D02*
X206700000Y-128200000D01*
X140800000Y-132700000D02*
X141500000Y-132700000D01*
X140800000Y-128200000D02*
X140800000Y-132700000D01*
X141500000Y-128200000D02*
X140800000Y-128200000D01*
D12*
X200930000Y-120398571D02*
X201215714Y-120398571D01*
X201358571Y-120470000D01*
X201501428Y-120612857D01*
X201572857Y-120898571D01*
X201572857Y-121398571D01*
X201501428Y-121684285D01*
X201358571Y-121827142D01*
X201215714Y-121898571D01*
X200930000Y-121898571D01*
X200787142Y-121827142D01*
X200644285Y-121684285D01*
X200572857Y-121398571D01*
X200572857Y-120898571D01*
X200644285Y-120612857D01*
X200787142Y-120470000D01*
X200930000Y-120398571D01*
X202215714Y-120398571D02*
X202215714Y-121612857D01*
X202287142Y-121755714D01*
X202358571Y-121827142D01*
X202501428Y-121898571D01*
X202787142Y-121898571D01*
X202930000Y-121827142D01*
X203001428Y-121755714D01*
X203072857Y-121612857D01*
X203072857Y-120398571D01*
X203572857Y-120398571D02*
X204430000Y-120398571D01*
X204001428Y-121898571D02*
X204001428Y-120398571D01*
X135864285Y-121708571D02*
X135864285Y-120208571D01*
X136578571Y-121708571D02*
X136578571Y-120208571D01*
X137435714Y-121708571D01*
X137435714Y-120208571D01*
X168767142Y-158080000D02*
X168624285Y-158008571D01*
X168410000Y-158008571D01*
X168195714Y-158080000D01*
X168052857Y-158222857D01*
X167981428Y-158365714D01*
X167910000Y-158651428D01*
X167910000Y-158865714D01*
X167981428Y-159151428D01*
X168052857Y-159294285D01*
X168195714Y-159437142D01*
X168410000Y-159508571D01*
X168552857Y-159508571D01*
X168767142Y-159437142D01*
X168838571Y-159365714D01*
X168838571Y-158865714D01*
X168552857Y-158865714D01*
X169481428Y-159508571D02*
X169481428Y-158008571D01*
X170338571Y-159508571D01*
X170338571Y-158008571D01*
X171052857Y-159508571D02*
X171052857Y-158008571D01*
X171410000Y-158008571D01*
X171624285Y-158080000D01*
X171767142Y-158222857D01*
X171838571Y-158365714D01*
X171910000Y-158651428D01*
X171910000Y-158865714D01*
X171838571Y-159151428D01*
X171767142Y-159294285D01*
X171624285Y-159437142D01*
X171410000Y-159508571D01*
X171052857Y-159508571D01*
X192497142Y-73077142D02*
X193640000Y-73077142D01*
X193068571Y-73648571D02*
X193068571Y-72505714D01*
X195140000Y-73648571D02*
X194282857Y-73648571D01*
X194711428Y-73648571D02*
X194711428Y-72148571D01*
X194568571Y-72362857D01*
X194425714Y-72505714D01*
X194282857Y-72577142D01*
X195711428Y-72291428D02*
X195782857Y-72220000D01*
X195925714Y-72148571D01*
X196282857Y-72148571D01*
X196425714Y-72220000D01*
X196497142Y-72291428D01*
X196568571Y-72434285D01*
X196568571Y-72577142D01*
X196497142Y-72791428D01*
X195640000Y-73648571D01*
X196568571Y-73648571D01*
X196997142Y-72148571D02*
X197497142Y-73648571D01*
X197997142Y-72148571D01*
X208028571Y-74010000D02*
X206528571Y-74010000D01*
X206528571Y-73438571D01*
X206600000Y-73295714D01*
X206671428Y-73224285D01*
X206814285Y-73152857D01*
X207028571Y-73152857D01*
X207171428Y-73224285D01*
X207242857Y-73295714D01*
X207314285Y-73438571D01*
X207314285Y-74010000D01*
X208028571Y-72295714D02*
X207957142Y-72438571D01*
X207885714Y-72510000D01*
X207742857Y-72581428D01*
X207314285Y-72581428D01*
X207171428Y-72510000D01*
X207100000Y-72438571D01*
X207028571Y-72295714D01*
X207028571Y-72081428D01*
X207100000Y-71938571D01*
X207171428Y-71867142D01*
X207314285Y-71795714D01*
X207742857Y-71795714D01*
X207885714Y-71867142D01*
X207957142Y-71938571D01*
X208028571Y-72081428D01*
X208028571Y-72295714D01*
X207242857Y-71152857D02*
X207242857Y-70652857D01*
X208028571Y-70438571D02*
X208028571Y-71152857D01*
X206528571Y-71152857D01*
X206528571Y-70438571D01*
X213297142Y-75902857D02*
X213297142Y-74760000D01*
X213868571Y-75331428D02*
X212725714Y-75331428D01*
X212868571Y-73402857D02*
X213868571Y-73402857D01*
X212297142Y-73760000D02*
X213368571Y-74117142D01*
X213368571Y-73188571D01*
X213011428Y-72402857D02*
X212940000Y-72545714D01*
X212868571Y-72617142D01*
X212725714Y-72688571D01*
X212654285Y-72688571D01*
X212511428Y-72617142D01*
X212440000Y-72545714D01*
X212368571Y-72402857D01*
X212368571Y-72117142D01*
X212440000Y-71974285D01*
X212511428Y-71902857D01*
X212654285Y-71831428D01*
X212725714Y-71831428D01*
X212868571Y-71902857D01*
X212940000Y-71974285D01*
X213011428Y-72117142D01*
X213011428Y-72402857D01*
X213082857Y-72545714D01*
X213154285Y-72617142D01*
X213297142Y-72688571D01*
X213582857Y-72688571D01*
X213725714Y-72617142D01*
X213797142Y-72545714D01*
X213868571Y-72402857D01*
X213868571Y-72117142D01*
X213797142Y-71974285D01*
X213725714Y-71902857D01*
X213582857Y-71831428D01*
X213297142Y-71831428D01*
X213154285Y-71902857D01*
X213082857Y-71974285D01*
X213011428Y-72117142D01*
X212368571Y-71402857D02*
X213868571Y-70902857D01*
X212368571Y-70402857D01*
D14*
X127644285Y-35954285D02*
X129930000Y-35954285D01*
X128787142Y-37097142D02*
X128787142Y-34811428D01*
X132930000Y-37097142D02*
X131215714Y-37097142D01*
X132072857Y-37097142D02*
X132072857Y-34097142D01*
X131787142Y-34525714D01*
X131501428Y-34811428D01*
X131215714Y-34954285D01*
X134072857Y-34382857D02*
X134215714Y-34240000D01*
X134501428Y-34097142D01*
X135215714Y-34097142D01*
X135501428Y-34240000D01*
X135644285Y-34382857D01*
X135787142Y-34668571D01*
X135787142Y-34954285D01*
X135644285Y-35382857D01*
X133930000Y-37097142D01*
X135787142Y-37097142D01*
X136644285Y-34097142D02*
X137644285Y-37097142D01*
X138644285Y-34097142D01*
D12*
X171734285Y-67898571D02*
X172662857Y-67898571D01*
X172162857Y-68470000D01*
X172377142Y-68470000D01*
X172520000Y-68541428D01*
X172591428Y-68612857D01*
X172662857Y-68755714D01*
X172662857Y-69112857D01*
X172591428Y-69255714D01*
X172520000Y-69327142D01*
X172377142Y-69398571D01*
X171948571Y-69398571D01*
X171805714Y-69327142D01*
X171734285Y-69255714D01*
X173162857Y-68398571D02*
X173520000Y-69398571D01*
X173877142Y-68398571D01*
X174305714Y-67898571D02*
X175234285Y-67898571D01*
X174734285Y-68470000D01*
X174948571Y-68470000D01*
X175091428Y-68541428D01*
X175162857Y-68612857D01*
X175234285Y-68755714D01*
X175234285Y-69112857D01*
X175162857Y-69255714D01*
X175091428Y-69327142D01*
X174948571Y-69398571D01*
X174520000Y-69398571D01*
X174377142Y-69327142D01*
X174305714Y-69255714D01*
X161251428Y-76308571D02*
X160751428Y-75594285D01*
X160394285Y-76308571D02*
X160394285Y-74808571D01*
X160965714Y-74808571D01*
X161108571Y-74880000D01*
X161180000Y-74951428D01*
X161251428Y-75094285D01*
X161251428Y-75308571D01*
X161180000Y-75451428D01*
X161108571Y-75522857D01*
X160965714Y-75594285D01*
X160394285Y-75594285D01*
X161894285Y-75522857D02*
X162394285Y-75522857D01*
X162608571Y-76308571D02*
X161894285Y-76308571D01*
X161894285Y-74808571D01*
X162608571Y-74808571D01*
X163180000Y-76237142D02*
X163394285Y-76308571D01*
X163751428Y-76308571D01*
X163894285Y-76237142D01*
X163965714Y-76165714D01*
X164037142Y-76022857D01*
X164037142Y-75880000D01*
X163965714Y-75737142D01*
X163894285Y-75665714D01*
X163751428Y-75594285D01*
X163465714Y-75522857D01*
X163322857Y-75451428D01*
X163251428Y-75380000D01*
X163180000Y-75237142D01*
X163180000Y-75094285D01*
X163251428Y-74951428D01*
X163322857Y-74880000D01*
X163465714Y-74808571D01*
X163822857Y-74808571D01*
X164037142Y-74880000D01*
X164680000Y-75522857D02*
X165180000Y-75522857D01*
X165394285Y-76308571D02*
X164680000Y-76308571D01*
X164680000Y-74808571D01*
X165394285Y-74808571D01*
X165822857Y-74808571D02*
X166680000Y-74808571D01*
X166251428Y-76308571D02*
X166251428Y-74808571D01*
X206434761Y-25183333D02*
X204434761Y-25183333D01*
X204434761Y-24421428D01*
X204530000Y-24230952D01*
X204625238Y-24135714D01*
X204815714Y-24040476D01*
X205101428Y-24040476D01*
X205291904Y-24135714D01*
X205387142Y-24230952D01*
X205482380Y-24421428D01*
X205482380Y-25183333D01*
X206434761Y-22897619D02*
X206339523Y-23088095D01*
X206244285Y-23183333D01*
X206053809Y-23278571D01*
X205482380Y-23278571D01*
X205291904Y-23183333D01*
X205196666Y-23088095D01*
X205101428Y-22897619D01*
X205101428Y-22611904D01*
X205196666Y-22421428D01*
X205291904Y-22326190D01*
X205482380Y-22230952D01*
X206053809Y-22230952D01*
X206244285Y-22326190D01*
X206339523Y-22421428D01*
X206434761Y-22611904D01*
X206434761Y-22897619D01*
X205387142Y-21373809D02*
X205387142Y-20707142D01*
X206434761Y-20421428D02*
X206434761Y-21373809D01*
X204434761Y-21373809D01*
X204434761Y-20421428D01*
X185304761Y-25074761D02*
X185304761Y-26027142D01*
X183304761Y-26027142D01*
X185304761Y-24408095D02*
X183304761Y-24408095D01*
X185304761Y-23455714D02*
X183304761Y-23455714D01*
X185304761Y-22312857D01*
X183304761Y-22312857D01*
X185304761Y-21360476D02*
X183304761Y-21360476D01*
X185304761Y-20217619D02*
X184161904Y-21074761D01*
X183304761Y-20217619D02*
X184447619Y-21360476D01*
D11*
X198860000Y-109180000D02*
X198890000Y-109180000D01*
X205130000Y-106680000D02*
X205870000Y-106680000D01*
X205130000Y-109130000D02*
X205130000Y-106680000D01*
X205920000Y-109130000D02*
X205130000Y-109130000D01*
X198840000Y-97600000D02*
X198850000Y-97600000D01*
X205960000Y-97600000D02*
X198850000Y-97600000D01*
X205960000Y-118000000D02*
X205960000Y-97600000D01*
X198850000Y-118000000D02*
X205960000Y-118000000D01*
X198850000Y-97650000D02*
X198850000Y-118000000D01*
D12*
X201332142Y-117367142D02*
X201403571Y-117152857D01*
X201403571Y-116795714D01*
X201332142Y-116652857D01*
X201260714Y-116581428D01*
X201117857Y-116510000D01*
X200975000Y-116510000D01*
X200832142Y-116581428D01*
X200760714Y-116652857D01*
X200689285Y-116795714D01*
X200617857Y-117081428D01*
X200546428Y-117224285D01*
X200475000Y-117295714D01*
X200332142Y-117367142D01*
X200189285Y-117367142D01*
X200046428Y-117295714D01*
X199975000Y-117224285D01*
X199903571Y-117081428D01*
X199903571Y-116724285D01*
X199975000Y-116510000D01*
X200689285Y-115581428D02*
X201403571Y-115581428D01*
X199903571Y-116081428D02*
X200689285Y-115581428D01*
X199903571Y-115081428D01*
X201403571Y-114581428D02*
X199903571Y-114581428D01*
X201403571Y-113724285D01*
X199903571Y-113724285D01*
X201260714Y-112152857D02*
X201332142Y-112224285D01*
X201403571Y-112438571D01*
X201403571Y-112581428D01*
X201332142Y-112795714D01*
X201189285Y-112938571D01*
X201046428Y-113010000D01*
X200760714Y-113081428D01*
X200546428Y-113081428D01*
X200260714Y-113010000D01*
X200117857Y-112938571D01*
X199975000Y-112795714D01*
X199903571Y-112581428D01*
X199903571Y-112438571D01*
X199975000Y-112224285D01*
X200046428Y-112152857D01*
X201403571Y-110367142D02*
X199903571Y-110367142D01*
X199903571Y-110010000D01*
X199975000Y-109795714D01*
X200117857Y-109652857D01*
X200260714Y-109581428D01*
X200546428Y-109510000D01*
X200760714Y-109510000D01*
X201046428Y-109581428D01*
X201189285Y-109652857D01*
X201332142Y-109795714D01*
X201403571Y-110010000D01*
X201403571Y-110367142D01*
X200975000Y-108938571D02*
X200975000Y-108224285D01*
X201403571Y-109081428D02*
X199903571Y-108581428D01*
X201403571Y-108081428D01*
X199903571Y-107795714D02*
X199903571Y-106938571D01*
X201403571Y-107367142D02*
X199903571Y-107367142D01*
X200975000Y-106510000D02*
X200975000Y-105795714D01*
X201403571Y-106652857D02*
X199903571Y-106152857D01*
X201403571Y-105652857D01*
X199903571Y-104224285D02*
X201403571Y-103724285D01*
X199903571Y-103224285D01*
X201546428Y-103081428D02*
X201546428Y-101938571D01*
X201403571Y-100867142D02*
X201403571Y-101581428D01*
X199903571Y-101581428D01*
X200617857Y-100367142D02*
X200617857Y-99867142D01*
X201403571Y-99652857D02*
X201403571Y-100367142D01*
X199903571Y-100367142D01*
X199903571Y-99652857D01*
X201403571Y-99010000D02*
X199903571Y-99010000D01*
X199903571Y-98652857D01*
X199975000Y-98438571D01*
X200117857Y-98295714D01*
X200260714Y-98224285D01*
X200546428Y-98152857D01*
X200760714Y-98152857D01*
X201046428Y-98224285D01*
X201189285Y-98295714D01*
X201332142Y-98438571D01*
X201403571Y-98652857D01*
X201403571Y-99010000D01*
X202525000Y-115688571D02*
X202453571Y-115831428D01*
X202453571Y-116045714D01*
X202525000Y-116260000D01*
X202667857Y-116402857D01*
X202810714Y-116474285D01*
X203096428Y-116545714D01*
X203310714Y-116545714D01*
X203596428Y-116474285D01*
X203739285Y-116402857D01*
X203882142Y-116260000D01*
X203953571Y-116045714D01*
X203953571Y-115902857D01*
X203882142Y-115688571D01*
X203810714Y-115617142D01*
X203310714Y-115617142D01*
X203310714Y-115902857D01*
X203953571Y-114974285D02*
X202453571Y-114974285D01*
X203953571Y-114117142D01*
X202453571Y-114117142D01*
X203953571Y-113402857D02*
X202453571Y-113402857D01*
X202453571Y-113045714D01*
X202525000Y-112831428D01*
X202667857Y-112688571D01*
X202810714Y-112617142D01*
X203096428Y-112545714D01*
X203310714Y-112545714D01*
X203596428Y-112617142D01*
X203739285Y-112688571D01*
X203882142Y-112831428D01*
X203953571Y-113045714D01*
X203953571Y-113402857D01*
X203810714Y-109902857D02*
X203882142Y-109974285D01*
X203953571Y-110188571D01*
X203953571Y-110331428D01*
X203882142Y-110545714D01*
X203739285Y-110688571D01*
X203596428Y-110760000D01*
X203310714Y-110831428D01*
X203096428Y-110831428D01*
X202810714Y-110760000D01*
X202667857Y-110688571D01*
X202525000Y-110545714D01*
X202453571Y-110331428D01*
X202453571Y-110188571D01*
X202525000Y-109974285D01*
X202596428Y-109902857D01*
X203953571Y-108545714D02*
X203953571Y-109260000D01*
X202453571Y-109260000D01*
X202453571Y-107760000D02*
X202453571Y-107474285D01*
X202525000Y-107331428D01*
X202667857Y-107188571D01*
X202953571Y-107117142D01*
X203453571Y-107117142D01*
X203739285Y-107188571D01*
X203882142Y-107331428D01*
X203953571Y-107474285D01*
X203953571Y-107760000D01*
X203882142Y-107902857D01*
X203739285Y-108045714D01*
X203453571Y-108117142D01*
X202953571Y-108117142D01*
X202667857Y-108045714D01*
X202525000Y-107902857D01*
X202453571Y-107760000D01*
X203810714Y-105617142D02*
X203882142Y-105688571D01*
X203953571Y-105902857D01*
X203953571Y-106045714D01*
X203882142Y-106260000D01*
X203739285Y-106402857D01*
X203596428Y-106474285D01*
X203310714Y-106545714D01*
X203096428Y-106545714D01*
X202810714Y-106474285D01*
X202667857Y-106402857D01*
X202525000Y-106260000D01*
X202453571Y-106045714D01*
X202453571Y-105902857D01*
X202525000Y-105688571D01*
X202596428Y-105617142D01*
X203953571Y-104974285D02*
X202453571Y-104974285D01*
X203953571Y-104117142D02*
X203096428Y-104760000D01*
X202453571Y-104117142D02*
X203310714Y-104974285D01*
X202453571Y-102474285D02*
X202453571Y-101545714D01*
X203025000Y-102045714D01*
X203025000Y-101831428D01*
X203096428Y-101688571D01*
X203167857Y-101617142D01*
X203310714Y-101545714D01*
X203667857Y-101545714D01*
X203810714Y-101617142D01*
X203882142Y-101688571D01*
X203953571Y-101831428D01*
X203953571Y-102260000D01*
X203882142Y-102402857D01*
X203810714Y-102474285D01*
X202953571Y-101045714D02*
X203953571Y-100688571D01*
X202953571Y-100331428D01*
X202453571Y-99902857D02*
X202453571Y-98974285D01*
X203025000Y-99474285D01*
X203025000Y-99260000D01*
X203096428Y-99117142D01*
X203167857Y-99045714D01*
X203310714Y-98974285D01*
X203667857Y-98974285D01*
X203810714Y-99045714D01*
X203882142Y-99117142D01*
X203953571Y-99260000D01*
X203953571Y-99688571D01*
X203882142Y-99831428D01*
X203810714Y-99902857D01*
X128801428Y-98775238D02*
X130420476Y-98775238D01*
X130610952Y-98870476D01*
X130706190Y-98965714D01*
X130801428Y-99156190D01*
X130801428Y-99441904D01*
X130706190Y-99632380D01*
X130039523Y-98775238D02*
X130134761Y-98965714D01*
X130134761Y-99346666D01*
X130039523Y-99537142D01*
X129944285Y-99632380D01*
X129753809Y-99727619D01*
X129182380Y-99727619D01*
X128991904Y-99632380D01*
X128896666Y-99537142D01*
X128801428Y-99346666D01*
X128801428Y-98965714D01*
X128896666Y-98775238D01*
X130134761Y-97822857D02*
X128801428Y-97822857D01*
X128134761Y-97822857D02*
X128230000Y-97918095D01*
X128325238Y-97822857D01*
X128230000Y-97727619D01*
X128134761Y-97822857D01*
X128325238Y-97822857D01*
X128801428Y-97156190D02*
X128801428Y-96394285D01*
X128134761Y-96870476D02*
X129849047Y-96870476D01*
X130039523Y-96775238D01*
X130134761Y-96584761D01*
X130134761Y-96394285D01*
X130134761Y-95727619D02*
X128134761Y-95727619D01*
X130134761Y-94870476D02*
X129087142Y-94870476D01*
X128896666Y-94965714D01*
X128801428Y-95156190D01*
X128801428Y-95441904D01*
X128896666Y-95632380D01*
X128991904Y-95727619D01*
X128801428Y-93060952D02*
X130134761Y-93060952D01*
X128801428Y-93918095D02*
X129849047Y-93918095D01*
X130039523Y-93822857D01*
X130134761Y-93632380D01*
X130134761Y-93346666D01*
X130039523Y-93156190D01*
X129944285Y-93060952D01*
X130134761Y-92108571D02*
X128134761Y-92108571D01*
X128896666Y-92108571D02*
X128801428Y-91918095D01*
X128801428Y-91537142D01*
X128896666Y-91346666D01*
X128991904Y-91251428D01*
X129182380Y-91156190D01*
X129753809Y-91156190D01*
X129944285Y-91251428D01*
X130039523Y-91346666D01*
X130134761Y-91537142D01*
X130134761Y-91918095D01*
X130039523Y-92108571D01*
X129944285Y-90299047D02*
X130039523Y-90203809D01*
X130134761Y-90299047D01*
X130039523Y-90394285D01*
X129944285Y-90299047D01*
X130134761Y-90299047D01*
X130039523Y-88489523D02*
X130134761Y-88680000D01*
X130134761Y-89060952D01*
X130039523Y-89251428D01*
X129944285Y-89346666D01*
X129753809Y-89441904D01*
X129182380Y-89441904D01*
X128991904Y-89346666D01*
X128896666Y-89251428D01*
X128801428Y-89060952D01*
X128801428Y-88680000D01*
X128896666Y-88489523D01*
X130134761Y-87346666D02*
X130039523Y-87537142D01*
X129944285Y-87632380D01*
X129753809Y-87727619D01*
X129182380Y-87727619D01*
X128991904Y-87632380D01*
X128896666Y-87537142D01*
X128801428Y-87346666D01*
X128801428Y-87060952D01*
X128896666Y-86870476D01*
X128991904Y-86775238D01*
X129182380Y-86680000D01*
X129753809Y-86680000D01*
X129944285Y-86775238D01*
X130039523Y-86870476D01*
X130134761Y-87060952D01*
X130134761Y-87346666D01*
X130134761Y-85822857D02*
X128801428Y-85822857D01*
X128991904Y-85822857D02*
X128896666Y-85727619D01*
X128801428Y-85537142D01*
X128801428Y-85251428D01*
X128896666Y-85060952D01*
X129087142Y-84965714D01*
X130134761Y-84965714D01*
X129087142Y-84965714D02*
X128896666Y-84870476D01*
X128801428Y-84680000D01*
X128801428Y-84394285D01*
X128896666Y-84203809D01*
X129087142Y-84108571D01*
X130134761Y-84108571D01*
X128039523Y-81727619D02*
X130610952Y-83441904D01*
X130039523Y-80203809D02*
X130134761Y-80394285D01*
X130134761Y-80775238D01*
X130039523Y-80965714D01*
X129944285Y-81060952D01*
X129753809Y-81156190D01*
X129182380Y-81156190D01*
X128991904Y-81060952D01*
X128896666Y-80965714D01*
X128801428Y-80775238D01*
X128801428Y-80394285D01*
X128896666Y-80203809D01*
X130134761Y-79346666D02*
X128801428Y-79346666D01*
X128134761Y-79346666D02*
X128230000Y-79441904D01*
X128325238Y-79346666D01*
X128230000Y-79251428D01*
X128134761Y-79346666D01*
X128325238Y-79346666D01*
X130134761Y-78108571D02*
X130039523Y-78299047D01*
X129849047Y-78394285D01*
X128134761Y-78394285D01*
X130134761Y-77060952D02*
X130039523Y-77251428D01*
X129849047Y-77346666D01*
X128134761Y-77346666D01*
X130134761Y-76299047D02*
X128801428Y-76299047D01*
X128134761Y-76299047D02*
X128230000Y-76394285D01*
X128325238Y-76299047D01*
X128230000Y-76203809D01*
X128134761Y-76299047D01*
X128325238Y-76299047D01*
X130134761Y-74489523D02*
X129087142Y-74489523D01*
X128896666Y-74584761D01*
X128801428Y-74775238D01*
X128801428Y-75156190D01*
X128896666Y-75346666D01*
X130039523Y-74489523D02*
X130134761Y-74680000D01*
X130134761Y-75156190D01*
X130039523Y-75346666D01*
X129849047Y-75441904D01*
X129658571Y-75441904D01*
X129468095Y-75346666D01*
X129372857Y-75156190D01*
X129372857Y-74680000D01*
X129277619Y-74489523D01*
X128801428Y-73537142D02*
X130134761Y-73537142D01*
X128991904Y-73537142D02*
X128896666Y-73441904D01*
X128801428Y-73251428D01*
X128801428Y-72965714D01*
X128896666Y-72775238D01*
X129087142Y-72680000D01*
X130134761Y-72680000D01*
X128134761Y-70870476D02*
X128134761Y-71251428D01*
X128230000Y-71441904D01*
X128325238Y-71537142D01*
X128610952Y-71727619D01*
X128991904Y-71822857D01*
X129753809Y-71822857D01*
X129944285Y-71727619D01*
X130039523Y-71632380D01*
X130134761Y-71441904D01*
X130134761Y-71060952D01*
X130039523Y-70870476D01*
X129944285Y-70775238D01*
X129753809Y-70680000D01*
X129277619Y-70680000D01*
X129087142Y-70775238D01*
X128991904Y-70870476D01*
X128896666Y-71060952D01*
X128896666Y-71441904D01*
X128991904Y-71632380D01*
X129087142Y-71727619D01*
X129277619Y-71822857D01*
X128801428Y-68965714D02*
X130134761Y-68965714D01*
X128039523Y-69441904D02*
X129468095Y-69918095D01*
X129468095Y-68680000D01*
X128039523Y-66489523D02*
X130610952Y-68203809D01*
X130134761Y-65822857D02*
X128134761Y-65822857D01*
X128896666Y-65822857D02*
X128801428Y-65632380D01*
X128801428Y-65251428D01*
X128896666Y-65060952D01*
X128991904Y-64965714D01*
X129182380Y-64870476D01*
X129753809Y-64870476D01*
X129944285Y-64965714D01*
X130039523Y-65060952D01*
X130134761Y-65251428D01*
X130134761Y-65632380D01*
X130039523Y-65822857D01*
X130134761Y-64013333D02*
X128801428Y-64013333D01*
X128134761Y-64013333D02*
X128230000Y-64108571D01*
X128325238Y-64013333D01*
X128230000Y-63918095D01*
X128134761Y-64013333D01*
X128325238Y-64013333D01*
X128801428Y-62203809D02*
X130420476Y-62203809D01*
X130610952Y-62299047D01*
X130706190Y-62394285D01*
X130801428Y-62584761D01*
X130801428Y-62870476D01*
X130706190Y-63060952D01*
X130039523Y-62203809D02*
X130134761Y-62394285D01*
X130134761Y-62775238D01*
X130039523Y-62965714D01*
X129944285Y-63060952D01*
X129753809Y-63156190D01*
X129182380Y-63156190D01*
X128991904Y-63060952D01*
X128896666Y-62965714D01*
X128801428Y-62775238D01*
X128801428Y-62394285D01*
X128896666Y-62203809D01*
X128801428Y-61537142D02*
X128801428Y-60775238D01*
X128134761Y-61251428D02*
X129849047Y-61251428D01*
X130039523Y-61156190D01*
X130134761Y-60965714D01*
X130134761Y-60775238D01*
X130134761Y-60108571D02*
X128801428Y-60108571D01*
X128134761Y-60108571D02*
X128230000Y-60203809D01*
X128325238Y-60108571D01*
X128230000Y-60013333D01*
X128134761Y-60108571D01*
X128325238Y-60108571D01*
X130134761Y-59156190D02*
X128801428Y-59156190D01*
X128991904Y-59156190D02*
X128896666Y-59060952D01*
X128801428Y-58870476D01*
X128801428Y-58584761D01*
X128896666Y-58394285D01*
X129087142Y-58299047D01*
X130134761Y-58299047D01*
X129087142Y-58299047D02*
X128896666Y-58203809D01*
X128801428Y-58013333D01*
X128801428Y-57727619D01*
X128896666Y-57537142D01*
X129087142Y-57441904D01*
X130134761Y-57441904D01*
X130039523Y-55727619D02*
X130134761Y-55918095D01*
X130134761Y-56299047D01*
X130039523Y-56489523D01*
X129849047Y-56584761D01*
X129087142Y-56584761D01*
X128896666Y-56489523D01*
X128801428Y-56299047D01*
X128801428Y-55918095D01*
X128896666Y-55727619D01*
X129087142Y-55632380D01*
X129277619Y-55632380D01*
X129468095Y-56584761D01*
X134374761Y-90151904D02*
X132374761Y-90151904D01*
X134279523Y-90151904D02*
X134374761Y-90342380D01*
X134374761Y-90723333D01*
X134279523Y-90913809D01*
X134184285Y-91009047D01*
X133993809Y-91104285D01*
X133422380Y-91104285D01*
X133231904Y-91009047D01*
X133136666Y-90913809D01*
X133041428Y-90723333D01*
X133041428Y-90342380D01*
X133136666Y-90151904D01*
X134374761Y-88342380D02*
X133327142Y-88342380D01*
X133136666Y-88437619D01*
X133041428Y-88628095D01*
X133041428Y-89009047D01*
X133136666Y-89199523D01*
X134279523Y-88342380D02*
X134374761Y-88532857D01*
X134374761Y-89009047D01*
X134279523Y-89199523D01*
X134089047Y-89294761D01*
X133898571Y-89294761D01*
X133708095Y-89199523D01*
X133612857Y-89009047D01*
X133612857Y-88532857D01*
X133517619Y-88342380D01*
X133041428Y-87580476D02*
X134374761Y-87104285D01*
X133041428Y-86628095D01*
X134374761Y-85866190D02*
X133041428Y-85866190D01*
X132374761Y-85866190D02*
X132470000Y-85961428D01*
X132565238Y-85866190D01*
X132470000Y-85770952D01*
X132374761Y-85866190D01*
X132565238Y-85866190D01*
X134374761Y-84056666D02*
X132374761Y-84056666D01*
X134279523Y-84056666D02*
X134374761Y-84247142D01*
X134374761Y-84628095D01*
X134279523Y-84818571D01*
X134184285Y-84913809D01*
X133993809Y-85009047D01*
X133422380Y-85009047D01*
X133231904Y-84913809D01*
X133136666Y-84818571D01*
X133041428Y-84628095D01*
X133041428Y-84247142D01*
X133136666Y-84056666D01*
X133422380Y-81866190D02*
X133327142Y-81961428D01*
X133231904Y-82151904D01*
X133231904Y-82342380D01*
X133327142Y-82532857D01*
X133422380Y-82628095D01*
X133612857Y-82723333D01*
X133803333Y-82723333D01*
X133993809Y-82628095D01*
X134089047Y-82532857D01*
X134184285Y-82342380D01*
X134184285Y-82151904D01*
X134089047Y-81961428D01*
X133993809Y-81866190D01*
X133231904Y-81866190D02*
X133993809Y-81866190D01*
X134089047Y-81770952D01*
X134089047Y-81675714D01*
X133993809Y-81485238D01*
X133803333Y-81390000D01*
X133327142Y-81390000D01*
X133041428Y-81580476D01*
X132850952Y-81866190D01*
X132755714Y-82247142D01*
X132850952Y-82628095D01*
X133041428Y-82913809D01*
X133327142Y-83104285D01*
X133708095Y-83199523D01*
X134089047Y-83104285D01*
X134374761Y-82913809D01*
X134565238Y-82628095D01*
X134660476Y-82247142D01*
X134565238Y-81866190D01*
X134374761Y-81580476D01*
X134374761Y-79675714D02*
X132374761Y-79675714D01*
X134279523Y-79675714D02*
X134374761Y-79866190D01*
X134374761Y-80247142D01*
X134279523Y-80437619D01*
X134184285Y-80532857D01*
X133993809Y-80628095D01*
X133422380Y-80628095D01*
X133231904Y-80532857D01*
X133136666Y-80437619D01*
X133041428Y-80247142D01*
X133041428Y-79866190D01*
X133136666Y-79675714D01*
X133041428Y-78913809D02*
X134374761Y-78532857D01*
X133422380Y-78151904D01*
X134374761Y-77770952D01*
X133041428Y-77390000D01*
X133041428Y-76913809D02*
X133041428Y-76151904D01*
X132374761Y-76628095D02*
X134089047Y-76628095D01*
X134279523Y-76532857D01*
X134374761Y-76342380D01*
X134374761Y-76151904D01*
X132565238Y-75580476D02*
X132470000Y-75485238D01*
X132374761Y-75294761D01*
X132374761Y-74818571D01*
X132470000Y-74628095D01*
X132565238Y-74532857D01*
X132755714Y-74437619D01*
X132946190Y-74437619D01*
X133231904Y-74532857D01*
X134374761Y-75675714D01*
X134374761Y-74437619D01*
X132374761Y-73770952D02*
X132374761Y-72437619D01*
X134374761Y-73294761D01*
X134184285Y-71675714D02*
X134279523Y-71580476D01*
X134374761Y-71675714D01*
X134279523Y-71770952D01*
X134184285Y-71675714D01*
X134374761Y-71675714D01*
X134279523Y-69866190D02*
X134374761Y-70056666D01*
X134374761Y-70437619D01*
X134279523Y-70628095D01*
X134184285Y-70723333D01*
X133993809Y-70818571D01*
X133422380Y-70818571D01*
X133231904Y-70723333D01*
X133136666Y-70628095D01*
X133041428Y-70437619D01*
X133041428Y-70056666D01*
X133136666Y-69866190D01*
X134374761Y-68723333D02*
X134279523Y-68913809D01*
X134184285Y-69009047D01*
X133993809Y-69104285D01*
X133422380Y-69104285D01*
X133231904Y-69009047D01*
X133136666Y-68913809D01*
X133041428Y-68723333D01*
X133041428Y-68437619D01*
X133136666Y-68247142D01*
X133231904Y-68151904D01*
X133422380Y-68056666D01*
X133993809Y-68056666D01*
X134184285Y-68151904D01*
X134279523Y-68247142D01*
X134374761Y-68437619D01*
X134374761Y-68723333D01*
X134184285Y-67199523D02*
X134279523Y-67104285D01*
X134374761Y-67199523D01*
X134279523Y-67294761D01*
X134184285Y-67199523D01*
X134374761Y-67199523D01*
X133041428Y-65390000D02*
X134374761Y-65390000D01*
X133041428Y-66247142D02*
X134089047Y-66247142D01*
X134279523Y-66151904D01*
X134374761Y-65961428D01*
X134374761Y-65675714D01*
X134279523Y-65485238D01*
X134184285Y-65390000D01*
X134374761Y-64437619D02*
X132374761Y-64437619D01*
X133612857Y-64247142D02*
X134374761Y-63675714D01*
X133041428Y-63675714D02*
X133803333Y-64437619D01*
X153500000Y-95854761D02*
X153500000Y-93854761D01*
X153976190Y-93854761D01*
X154261904Y-93950000D01*
X154452380Y-94140476D01*
X154547619Y-94330952D01*
X154642857Y-94711904D01*
X154642857Y-94997619D01*
X154547619Y-95378571D01*
X154452380Y-95569047D01*
X154261904Y-95759523D01*
X153976190Y-95854761D01*
X153500000Y-95854761D01*
X156357142Y-95854761D02*
X156357142Y-94807142D01*
X156261904Y-94616666D01*
X156071428Y-94521428D01*
X155690476Y-94521428D01*
X155500000Y-94616666D01*
X156357142Y-95759523D02*
X156166666Y-95854761D01*
X155690476Y-95854761D01*
X155500000Y-95759523D01*
X155404761Y-95569047D01*
X155404761Y-95378571D01*
X155500000Y-95188095D01*
X155690476Y-95092857D01*
X156166666Y-95092857D01*
X156357142Y-94997619D01*
X157119047Y-94521428D02*
X157595238Y-95854761D01*
X158071428Y-94521428D01*
X158833333Y-95854761D02*
X158833333Y-94521428D01*
X158833333Y-93854761D02*
X158738095Y-93950000D01*
X158833333Y-94045238D01*
X158928571Y-93950000D01*
X158833333Y-93854761D01*
X158833333Y-94045238D01*
X160642857Y-95854761D02*
X160642857Y-93854761D01*
X160642857Y-95759523D02*
X160452380Y-95854761D01*
X160071428Y-95854761D01*
X159880952Y-95759523D01*
X159785714Y-95664285D01*
X159690476Y-95473809D01*
X159690476Y-94902380D01*
X159785714Y-94711904D01*
X159880952Y-94616666D01*
X160071428Y-94521428D01*
X160452380Y-94521428D01*
X160642857Y-94616666D01*
X162833333Y-93854761D02*
X163976190Y-93854761D01*
X163404761Y-95854761D02*
X163404761Y-93854761D01*
X165500000Y-94521428D02*
X165500000Y-95854761D01*
X164642857Y-94521428D02*
X164642857Y-95569047D01*
X164738095Y-95759523D01*
X164928571Y-95854761D01*
X165214285Y-95854761D01*
X165404761Y-95759523D01*
X165500000Y-95664285D01*
X166452380Y-95854761D02*
X166452380Y-94521428D01*
X166452380Y-94902380D02*
X166547619Y-94711904D01*
X166642857Y-94616666D01*
X166833333Y-94521428D01*
X167023809Y-94521428D01*
X167690476Y-94521428D02*
X167690476Y-95854761D01*
X167690476Y-94711904D02*
X167785714Y-94616666D01*
X167976190Y-94521428D01*
X168261904Y-94521428D01*
X168452380Y-94616666D01*
X168547619Y-94807142D01*
X168547619Y-95854761D01*
X170261904Y-95759523D02*
X170071428Y-95854761D01*
X169690476Y-95854761D01*
X169500000Y-95759523D01*
X169404761Y-95569047D01*
X169404761Y-94807142D01*
X169500000Y-94616666D01*
X169690476Y-94521428D01*
X170071428Y-94521428D01*
X170261904Y-94616666D01*
X170357142Y-94807142D01*
X170357142Y-94997619D01*
X169404761Y-95188095D01*
X171214285Y-95854761D02*
X171214285Y-94521428D01*
X171214285Y-94902380D02*
X171309523Y-94711904D01*
X171404761Y-94616666D01*
X171595238Y-94521428D01*
X171785714Y-94521428D01*
X152785714Y-97345238D02*
X152880952Y-97250000D01*
X153071428Y-97154761D01*
X153547619Y-97154761D01*
X153738095Y-97250000D01*
X153833333Y-97345238D01*
X153928571Y-97535714D01*
X153928571Y-97726190D01*
X153833333Y-98011904D01*
X152690476Y-99154761D01*
X153928571Y-99154761D01*
X155166666Y-97154761D02*
X155357142Y-97154761D01*
X155547619Y-97250000D01*
X155642857Y-97345238D01*
X155738095Y-97535714D01*
X155833333Y-97916666D01*
X155833333Y-98392857D01*
X155738095Y-98773809D01*
X155642857Y-98964285D01*
X155547619Y-99059523D01*
X155357142Y-99154761D01*
X155166666Y-99154761D01*
X154976190Y-99059523D01*
X154880952Y-98964285D01*
X154785714Y-98773809D01*
X154690476Y-98392857D01*
X154690476Y-97916666D01*
X154785714Y-97535714D01*
X154880952Y-97345238D01*
X154976190Y-97250000D01*
X155166666Y-97154761D01*
X157738095Y-99154761D02*
X156595238Y-99154761D01*
X157166666Y-99154761D02*
X157166666Y-97154761D01*
X156976190Y-97440476D01*
X156785714Y-97630952D01*
X156595238Y-97726190D01*
X158404761Y-97154761D02*
X159738095Y-97154761D01*
X158880952Y-99154761D01*
X160500000Y-98392857D02*
X162023809Y-98392857D01*
X163357142Y-97154761D02*
X163547619Y-97154761D01*
X163738095Y-97250000D01*
X163833333Y-97345238D01*
X163928571Y-97535714D01*
X164023809Y-97916666D01*
X164023809Y-98392857D01*
X163928571Y-98773809D01*
X163833333Y-98964285D01*
X163738095Y-99059523D01*
X163547619Y-99154761D01*
X163357142Y-99154761D01*
X163166666Y-99059523D01*
X163071428Y-98964285D01*
X162976190Y-98773809D01*
X162880952Y-98392857D01*
X162880952Y-97916666D01*
X162976190Y-97535714D01*
X163071428Y-97345238D01*
X163166666Y-97250000D01*
X163357142Y-97154761D01*
X164690476Y-97154761D02*
X165928571Y-97154761D01*
X165261904Y-97916666D01*
X165547619Y-97916666D01*
X165738095Y-98011904D01*
X165833333Y-98107142D01*
X165928571Y-98297619D01*
X165928571Y-98773809D01*
X165833333Y-98964285D01*
X165738095Y-99059523D01*
X165547619Y-99154761D01*
X164976190Y-99154761D01*
X164785714Y-99059523D01*
X164690476Y-98964285D01*
X166785714Y-98392857D02*
X168309523Y-98392857D01*
X169071428Y-97154761D02*
X170309523Y-97154761D01*
X169642857Y-97916666D01*
X169928571Y-97916666D01*
X170119047Y-98011904D01*
X170214285Y-98107142D01*
X170309523Y-98297619D01*
X170309523Y-98773809D01*
X170214285Y-98964285D01*
X170119047Y-99059523D01*
X169928571Y-99154761D01*
X169357142Y-99154761D01*
X169166666Y-99059523D01*
X169071428Y-98964285D01*
X172214285Y-99154761D02*
X171071428Y-99154761D01*
X171642857Y-99154761D02*
X171642857Y-97154761D01*
X171452380Y-97440476D01*
X171261904Y-97630952D01*
X171071428Y-97726190D01*
D15*
X153498869Y-87614285D02*
X154046488Y-87804761D01*
X154213154Y-87995238D01*
X154356011Y-88376190D01*
X154284583Y-88947619D01*
X154046488Y-89328571D01*
X153832202Y-89519047D01*
X153427440Y-89709523D01*
X151903630Y-89709523D01*
X152403630Y-85709523D01*
X153736964Y-85709523D01*
X154094107Y-85900000D01*
X154260773Y-86090476D01*
X154403630Y-86471428D01*
X154356011Y-86852380D01*
X154117916Y-87233333D01*
X153903630Y-87423809D01*
X153498869Y-87614285D01*
X152165535Y-87614285D01*
X155903630Y-89709523D02*
X156403630Y-85709523D01*
X160379821Y-85900000D02*
X160022678Y-85709523D01*
X159451250Y-85709523D01*
X158856011Y-85900000D01*
X158427440Y-86280952D01*
X158189345Y-86661904D01*
X157903630Y-87423809D01*
X157832202Y-87995238D01*
X157927440Y-88757142D01*
X158070297Y-89138095D01*
X158403630Y-89519047D01*
X158951250Y-89709523D01*
X159332202Y-89709523D01*
X159927440Y-89519047D01*
X160141726Y-89328571D01*
X160308392Y-87995238D01*
X159546488Y-87995238D01*
X161736964Y-85709523D02*
X164022678Y-85709523D01*
X162379821Y-89709523D02*
X162879821Y-85709523D01*
X164856011Y-89709523D02*
X165356011Y-85709523D01*
X166760773Y-89709523D02*
X167260773Y-85709523D01*
X168236964Y-88566666D01*
X169927440Y-85709523D01*
X169427440Y-89709523D01*
X171594107Y-87614285D02*
X172927440Y-87614285D01*
X173236964Y-89709523D02*
X171332202Y-89709523D01*
X171832202Y-85709523D01*
X173736964Y-85709523D01*
D16*
X168670000Y-154720000D02*
X171210000Y-154720000D01*
X171210000Y-154720000D02*
X171210000Y-157260000D01*
X171210000Y-157260000D02*
X168670000Y-157260000D01*
X168670000Y-157260000D02*
X168670000Y-154720000D01*
X211640000Y-73340000D02*
X209100000Y-73340000D01*
X209100000Y-73340000D02*
X209100000Y-70800000D01*
X209100000Y-70800000D02*
X211640000Y-70800000D01*
X211640000Y-70800000D02*
X211640000Y-73340000D01*
D17*
G36*
X128564752Y-41071782D02*
X127357623Y-41071782D01*
X127357623Y-40468218D01*
X128564752Y-40468218D01*
X128564752Y-39261089D01*
X129168316Y-39261089D01*
X129168316Y-40468218D01*
X130375445Y-40468218D01*
X130375445Y-41071538D01*
X129775024Y-41074804D01*
X129174604Y-41078069D01*
X129171338Y-41678490D01*
X129168073Y-42278911D01*
X128564752Y-42278911D01*
X128564752Y-41071782D01*
X128564752Y-41071782D01*
G37*
X128564752Y-41071782D02*
X127357623Y-41071782D01*
X127357623Y-40468218D01*
X128564752Y-40468218D01*
X128564752Y-39261089D01*
X129168316Y-39261089D01*
X129168316Y-40468218D01*
X130375445Y-40468218D01*
X130375445Y-41071538D01*
X129775024Y-41074804D01*
X129174604Y-41078069D01*
X129171338Y-41678490D01*
X129168073Y-42278911D01*
X128564752Y-42278911D01*
X128564752Y-41071782D01*
G36*
X145451980Y-40468218D02*
X148469802Y-40468218D01*
X148469802Y-41071782D01*
X145451980Y-41071782D01*
X145451980Y-40468218D01*
X145451980Y-40468218D01*
G37*
X145451980Y-40468218D02*
X148469802Y-40468218D01*
X148469802Y-41071782D01*
X145451980Y-41071782D01*
X145451980Y-40468218D01*
G36*
X128745143Y-43784648D02*
X128635976Y-43780439D01*
X128582719Y-43776461D01*
X128314538Y-43739918D01*
X128051342Y-43680608D01*
X127795379Y-43599446D01*
X127548897Y-43497346D01*
X127314145Y-43375224D01*
X127093370Y-43233993D01*
X126917524Y-43098892D01*
X126718399Y-42916350D01*
X126537957Y-42717388D01*
X126376979Y-42503246D01*
X126236245Y-42275162D01*
X126116532Y-42034377D01*
X126018620Y-41782131D01*
X125955364Y-41568451D01*
X125901602Y-41313687D01*
X125868398Y-41051875D01*
X125855843Y-40787474D01*
X125864030Y-40524943D01*
X125893050Y-40268743D01*
X125925113Y-40098689D01*
X125996908Y-39829938D01*
X126090324Y-39572827D01*
X126204731Y-39328290D01*
X126339499Y-39097265D01*
X126493998Y-38880689D01*
X126667597Y-38679499D01*
X126859668Y-38494630D01*
X127069580Y-38327020D01*
X127158134Y-38265196D01*
X127389936Y-38124329D01*
X127631925Y-38006213D01*
X127884626Y-37910645D01*
X128148566Y-37837426D01*
X128404893Y-37789166D01*
X128469334Y-37781257D01*
X128548923Y-37773997D01*
X128638322Y-37767627D01*
X128732193Y-37762386D01*
X128825196Y-37758516D01*
X128911993Y-37756255D01*
X128987245Y-37755845D01*
X129045614Y-37757526D01*
X129067722Y-37759330D01*
X129098934Y-37762767D01*
X129147447Y-37767981D01*
X129205549Y-37774146D01*
X129243762Y-37778163D01*
X129492235Y-37816211D01*
X129741053Y-37877603D01*
X129986628Y-37960846D01*
X130225371Y-38064445D01*
X130453696Y-38186904D01*
X130668015Y-38326731D01*
X130796683Y-38425059D01*
X130878737Y-38495646D01*
X130968605Y-38579415D01*
X131059491Y-38669592D01*
X131144593Y-38759405D01*
X131217115Y-38842079D01*
X131225654Y-38852425D01*
X131372453Y-39050822D01*
X131503364Y-39266745D01*
X131617128Y-39497265D01*
X131712489Y-39739453D01*
X131788187Y-39990380D01*
X131842964Y-40247118D01*
X131853583Y-40314183D01*
X131876222Y-40468218D01*
X134206921Y-40468218D01*
X134501443Y-40468187D01*
X134771726Y-40468092D01*
X135018680Y-40467925D01*
X135243214Y-40467682D01*
X135446238Y-40467355D01*
X135628661Y-40466939D01*
X135791394Y-40466427D01*
X135935345Y-40465814D01*
X136061424Y-40465093D01*
X136170541Y-40464258D01*
X136263606Y-40463303D01*
X136341527Y-40462222D01*
X136405215Y-40461008D01*
X136455579Y-40459657D01*
X136493529Y-40458160D01*
X136519974Y-40456514D01*
X136535824Y-40454710D01*
X136541989Y-40452744D01*
X136542120Y-40452500D01*
X136592827Y-40293579D01*
X136648895Y-40155122D01*
X136712807Y-40032609D01*
X136787043Y-39921522D01*
X136874085Y-39817340D01*
X136913453Y-39776175D01*
X137048728Y-39656732D01*
X137196164Y-39557785D01*
X137353467Y-39479339D01*
X137518342Y-39421396D01*
X137688494Y-39383960D01*
X137861628Y-39367034D01*
X138035450Y-39370621D01*
X138207664Y-39394725D01*
X138375977Y-39439350D01*
X138538093Y-39504497D01*
X138691717Y-39590171D01*
X138834555Y-39696375D01*
X138917447Y-39773295D01*
X139039461Y-39911739D01*
X139138275Y-40057708D01*
X139215267Y-40213393D01*
X139246614Y-40297364D01*
X139295202Y-40478927D01*
X139320427Y-40661842D01*
X139321845Y-40765656D01*
X131217920Y-40765656D01*
X131207239Y-40522410D01*
X131174801Y-40290098D01*
X131120020Y-40066077D01*
X131042306Y-39847703D01*
X130985272Y-39720049D01*
X130871884Y-39512465D01*
X130739258Y-39320222D01*
X130588723Y-39144186D01*
X130421607Y-38985225D01*
X130239239Y-38844206D01*
X130042947Y-38721998D01*
X129834060Y-38619467D01*
X129613907Y-38537480D01*
X129383815Y-38476906D01*
X129145115Y-38438612D01*
X129004851Y-38427038D01*
X128959507Y-38424474D01*
X128919896Y-38422080D01*
X128904257Y-38421050D01*
X128880364Y-38421115D01*
X128837104Y-38422853D01*
X128780183Y-38425979D01*
X128715305Y-38430208D01*
X128700914Y-38431231D01*
X128454058Y-38460903D01*
X128217185Y-38513053D01*
X127991321Y-38586791D01*
X127777491Y-38681228D01*
X127576722Y-38795472D01*
X127390038Y-38928634D01*
X127218466Y-39079824D01*
X127063030Y-39248151D01*
X126924757Y-39432726D01*
X126804672Y-39632658D01*
X126703801Y-39847058D01*
X126623169Y-40075035D01*
X126571147Y-40279604D01*
X126555222Y-40373977D01*
X126542662Y-40486304D01*
X126533747Y-40609582D01*
X126528756Y-40736805D01*
X126527969Y-40860970D01*
X126531665Y-40975073D01*
X126539664Y-41068428D01*
X126581821Y-41314573D01*
X126646150Y-41549343D01*
X126732254Y-41772085D01*
X126839734Y-41982147D01*
X126968192Y-42178874D01*
X127117231Y-42361613D01*
X127286451Y-42529712D01*
X127475455Y-42682517D01*
X127558812Y-42740754D01*
X127751130Y-42854639D01*
X127956868Y-42948815D01*
X128173426Y-43022959D01*
X128398205Y-43076745D01*
X128628604Y-43109851D01*
X128862023Y-43121952D01*
X129095863Y-43112726D01*
X129327522Y-43081847D01*
X129554402Y-43028993D01*
X129646138Y-43000663D01*
X129869560Y-42913625D01*
X130079402Y-42806014D01*
X130274717Y-42679004D01*
X130454554Y-42533769D01*
X130617966Y-42371483D01*
X130764004Y-42193319D01*
X130891719Y-42000451D01*
X131000164Y-41794053D01*
X131088388Y-41575299D01*
X131155444Y-41345363D01*
X131200383Y-41105418D01*
X131204730Y-41072112D01*
X131209468Y-41020426D01*
X131213451Y-40951414D01*
X131216343Y-40872894D01*
X131217808Y-40792684D01*
X131217920Y-40765656D01*
X139321845Y-40765656D01*
X139322915Y-40843943D01*
X139303295Y-41023064D01*
X139262196Y-41197039D01*
X139200244Y-41363704D01*
X139118068Y-41520892D01*
X139016295Y-41666437D01*
X138895555Y-41798174D01*
X138783789Y-41893647D01*
X138632718Y-41993451D01*
X138470818Y-42071889D01*
X138300623Y-42128897D01*
X138124671Y-42164412D01*
X137945498Y-42178370D01*
X137765638Y-42170708D01*
X137587628Y-42141363D01*
X137414004Y-42090272D01*
X137247302Y-42017369D01*
X137108960Y-41935539D01*
X137067436Y-41904713D01*
X137016063Y-41862358D01*
X136962527Y-41814970D01*
X136929865Y-41784209D01*
X136821129Y-41666630D01*
X136729704Y-41540545D01*
X136653459Y-41402132D01*
X136590266Y-41247568D01*
X136541741Y-41087500D01*
X136536714Y-41085514D01*
X136522112Y-41083692D01*
X136497026Y-41082027D01*
X136460547Y-41080514D01*
X136411764Y-41079146D01*
X136349769Y-41077916D01*
X136273652Y-41076820D01*
X136182504Y-41075850D01*
X136075415Y-41075002D01*
X135951476Y-41074267D01*
X135809778Y-41073641D01*
X135649412Y-41073118D01*
X135469467Y-41072690D01*
X135269035Y-41072353D01*
X135047206Y-41072100D01*
X134803070Y-41071924D01*
X134535719Y-41071821D01*
X134244243Y-41071782D01*
X131874251Y-41071782D01*
X131865623Y-41150371D01*
X131842577Y-41308056D01*
X131807672Y-41477353D01*
X131763245Y-41649114D01*
X131711629Y-41814190D01*
X131663000Y-41944493D01*
X131548703Y-42192295D01*
X131414454Y-42425440D01*
X131261293Y-42643121D01*
X131090261Y-42844532D01*
X130902397Y-43028866D01*
X130698741Y-43195314D01*
X130480335Y-43343070D01*
X130248217Y-43471326D01*
X130003427Y-43579276D01*
X129747007Y-43666112D01*
X129479995Y-43731027D01*
X129327164Y-43757365D01*
X129230876Y-43768626D01*
X129117047Y-43777176D01*
X128993160Y-43782825D01*
X128866698Y-43785380D01*
X128745143Y-43784648D01*
X128745143Y-43784648D01*
G37*
X128745143Y-43784648D02*
X128635976Y-43780439D01*
X128582719Y-43776461D01*
X128314538Y-43739918D01*
X128051342Y-43680608D01*
X127795379Y-43599446D01*
X127548897Y-43497346D01*
X127314145Y-43375224D01*
X127093370Y-43233993D01*
X126917524Y-43098892D01*
X126718399Y-42916350D01*
X126537957Y-42717388D01*
X126376979Y-42503246D01*
X126236245Y-42275162D01*
X126116532Y-42034377D01*
X126018620Y-41782131D01*
X125955364Y-41568451D01*
X125901602Y-41313687D01*
X125868398Y-41051875D01*
X125855843Y-40787474D01*
X125864030Y-40524943D01*
X125893050Y-40268743D01*
X125925113Y-40098689D01*
X125996908Y-39829938D01*
X126090324Y-39572827D01*
X126204731Y-39328290D01*
X126339499Y-39097265D01*
X126493998Y-38880689D01*
X126667597Y-38679499D01*
X126859668Y-38494630D01*
X127069580Y-38327020D01*
X127158134Y-38265196D01*
X127389936Y-38124329D01*
X127631925Y-38006213D01*
X127884626Y-37910645D01*
X128148566Y-37837426D01*
X128404893Y-37789166D01*
X128469334Y-37781257D01*
X128548923Y-37773997D01*
X128638322Y-37767627D01*
X128732193Y-37762386D01*
X128825196Y-37758516D01*
X128911993Y-37756255D01*
X128987245Y-37755845D01*
X129045614Y-37757526D01*
X129067722Y-37759330D01*
X129098934Y-37762767D01*
X129147447Y-37767981D01*
X129205549Y-37774146D01*
X129243762Y-37778163D01*
X129492235Y-37816211D01*
X129741053Y-37877603D01*
X129986628Y-37960846D01*
X130225371Y-38064445D01*
X130453696Y-38186904D01*
X130668015Y-38326731D01*
X130796683Y-38425059D01*
X130878737Y-38495646D01*
X130968605Y-38579415D01*
X131059491Y-38669592D01*
X131144593Y-38759405D01*
X131217115Y-38842079D01*
X131225654Y-38852425D01*
X131372453Y-39050822D01*
X131503364Y-39266745D01*
X131617128Y-39497265D01*
X131712489Y-39739453D01*
X131788187Y-39990380D01*
X131842964Y-40247118D01*
X131853583Y-40314183D01*
X131876222Y-40468218D01*
X134206921Y-40468218D01*
X134501443Y-40468187D01*
X134771726Y-40468092D01*
X135018680Y-40467925D01*
X135243214Y-40467682D01*
X135446238Y-40467355D01*
X135628661Y-40466939D01*
X135791394Y-40466427D01*
X135935345Y-40465814D01*
X136061424Y-40465093D01*
X136170541Y-40464258D01*
X136263606Y-40463303D01*
X136341527Y-40462222D01*
X136405215Y-40461008D01*
X136455579Y-40459657D01*
X136493529Y-40458160D01*
X136519974Y-40456514D01*
X136535824Y-40454710D01*
X136541989Y-40452744D01*
X136542120Y-40452500D01*
X136592827Y-40293579D01*
X136648895Y-40155122D01*
X136712807Y-40032609D01*
X136787043Y-39921522D01*
X136874085Y-39817340D01*
X136913453Y-39776175D01*
X137048728Y-39656732D01*
X137196164Y-39557785D01*
X137353467Y-39479339D01*
X137518342Y-39421396D01*
X137688494Y-39383960D01*
X137861628Y-39367034D01*
X138035450Y-39370621D01*
X138207664Y-39394725D01*
X138375977Y-39439350D01*
X138538093Y-39504497D01*
X138691717Y-39590171D01*
X138834555Y-39696375D01*
X138917447Y-39773295D01*
X139039461Y-39911739D01*
X139138275Y-40057708D01*
X139215267Y-40213393D01*
X139246614Y-40297364D01*
X139295202Y-40478927D01*
X139320427Y-40661842D01*
X139321845Y-40765656D01*
X131217920Y-40765656D01*
X131207239Y-40522410D01*
X131174801Y-40290098D01*
X131120020Y-40066077D01*
X131042306Y-39847703D01*
X130985272Y-39720049D01*
X130871884Y-39512465D01*
X130739258Y-39320222D01*
X130588723Y-39144186D01*
X130421607Y-38985225D01*
X130239239Y-38844206D01*
X130042947Y-38721998D01*
X129834060Y-38619467D01*
X129613907Y-38537480D01*
X129383815Y-38476906D01*
X129145115Y-38438612D01*
X129004851Y-38427038D01*
X128959507Y-38424474D01*
X128919896Y-38422080D01*
X128904257Y-38421050D01*
X128880364Y-38421115D01*
X128837104Y-38422853D01*
X128780183Y-38425979D01*
X128715305Y-38430208D01*
X128700914Y-38431231D01*
X128454058Y-38460903D01*
X128217185Y-38513053D01*
X127991321Y-38586791D01*
X127777491Y-38681228D01*
X127576722Y-38795472D01*
X127390038Y-38928634D01*
X127218466Y-39079824D01*
X127063030Y-39248151D01*
X126924757Y-39432726D01*
X126804672Y-39632658D01*
X126703801Y-39847058D01*
X126623169Y-40075035D01*
X126571147Y-40279604D01*
X126555222Y-40373977D01*
X126542662Y-40486304D01*
X126533747Y-40609582D01*
X126528756Y-40736805D01*
X126527969Y-40860970D01*
X126531665Y-40975073D01*
X126539664Y-41068428D01*
X126581821Y-41314573D01*
X126646150Y-41549343D01*
X126732254Y-41772085D01*
X126839734Y-41982147D01*
X126968192Y-42178874D01*
X127117231Y-42361613D01*
X127286451Y-42529712D01*
X127475455Y-42682517D01*
X127558812Y-42740754D01*
X127751130Y-42854639D01*
X127956868Y-42948815D01*
X128173426Y-43022959D01*
X128398205Y-43076745D01*
X128628604Y-43109851D01*
X128862023Y-43121952D01*
X129095863Y-43112726D01*
X129327522Y-43081847D01*
X129554402Y-43028993D01*
X129646138Y-43000663D01*
X129869560Y-42913625D01*
X130079402Y-42806014D01*
X130274717Y-42679004D01*
X130454554Y-42533769D01*
X130617966Y-42371483D01*
X130764004Y-42193319D01*
X130891719Y-42000451D01*
X131000164Y-41794053D01*
X131088388Y-41575299D01*
X131155444Y-41345363D01*
X131200383Y-41105418D01*
X131204730Y-41072112D01*
X131209468Y-41020426D01*
X131213451Y-40951414D01*
X131216343Y-40872894D01*
X131217808Y-40792684D01*
X131217920Y-40765656D01*
X139321845Y-40765656D01*
X139322915Y-40843943D01*
X139303295Y-41023064D01*
X139262196Y-41197039D01*
X139200244Y-41363704D01*
X139118068Y-41520892D01*
X139016295Y-41666437D01*
X138895555Y-41798174D01*
X138783789Y-41893647D01*
X138632718Y-41993451D01*
X138470818Y-42071889D01*
X138300623Y-42128897D01*
X138124671Y-42164412D01*
X137945498Y-42178370D01*
X137765638Y-42170708D01*
X137587628Y-42141363D01*
X137414004Y-42090272D01*
X137247302Y-42017369D01*
X137108960Y-41935539D01*
X137067436Y-41904713D01*
X137016063Y-41862358D01*
X136962527Y-41814970D01*
X136929865Y-41784209D01*
X136821129Y-41666630D01*
X136729704Y-41540545D01*
X136653459Y-41402132D01*
X136590266Y-41247568D01*
X136541741Y-41087500D01*
X136536714Y-41085514D01*
X136522112Y-41083692D01*
X136497026Y-41082027D01*
X136460547Y-41080514D01*
X136411764Y-41079146D01*
X136349769Y-41077916D01*
X136273652Y-41076820D01*
X136182504Y-41075850D01*
X136075415Y-41075002D01*
X135951476Y-41074267D01*
X135809778Y-41073641D01*
X135649412Y-41073118D01*
X135469467Y-41072690D01*
X135269035Y-41072353D01*
X135047206Y-41072100D01*
X134803070Y-41071924D01*
X134535719Y-41071821D01*
X134244243Y-41071782D01*
X131874251Y-41071782D01*
X131865623Y-41150371D01*
X131842577Y-41308056D01*
X131807672Y-41477353D01*
X131763245Y-41649114D01*
X131711629Y-41814190D01*
X131663000Y-41944493D01*
X131548703Y-42192295D01*
X131414454Y-42425440D01*
X131261293Y-42643121D01*
X131090261Y-42844532D01*
X130902397Y-43028866D01*
X130698741Y-43195314D01*
X130480335Y-43343070D01*
X130248217Y-43471326D01*
X130003427Y-43579276D01*
X129747007Y-43666112D01*
X129479995Y-43731027D01*
X129327164Y-43757365D01*
X129230876Y-43768626D01*
X129117047Y-43777176D01*
X128993160Y-43782825D01*
X128866698Y-43785380D01*
X128745143Y-43784648D01*
G36*
X137635744Y-43771128D02*
X137372575Y-43735017D01*
X137112878Y-43675090D01*
X136907772Y-43609465D01*
X136651853Y-43503675D01*
X136407580Y-43375906D01*
X136176162Y-43227061D01*
X135958811Y-43058042D01*
X135756734Y-42869751D01*
X135571142Y-42663091D01*
X135476522Y-42541912D01*
X135443068Y-42496844D01*
X135703476Y-42315576D01*
X135775192Y-42266046D01*
X135840515Y-42221675D01*
X135896502Y-42184402D01*
X135940210Y-42156167D01*
X135968696Y-42138908D01*
X135978598Y-42134307D01*
X135993099Y-42143699D01*
X136016877Y-42168303D01*
X136044325Y-42202200D01*
X136187206Y-42372184D01*
X136349754Y-42529421D01*
X136528964Y-42672042D01*
X136721829Y-42798182D01*
X136925345Y-42905971D01*
X137136504Y-42993543D01*
X137352302Y-43059030D01*
X137462297Y-43083156D01*
X137702963Y-43116637D01*
X137943002Y-43125783D01*
X138180705Y-43111111D01*
X138414363Y-43073139D01*
X138642270Y-43012382D01*
X138862717Y-42929358D01*
X139073994Y-42824584D01*
X139274395Y-42698576D01*
X139462211Y-42551852D01*
X139579937Y-42442432D01*
X139745706Y-42260376D01*
X139889395Y-42066329D01*
X140011049Y-41860198D01*
X140110714Y-41641892D01*
X140188438Y-41411320D01*
X140244266Y-41168390D01*
X140254213Y-41109501D01*
X140265559Y-41012621D01*
X140272486Y-40899217D01*
X140274991Y-40777364D01*
X140273070Y-40655138D01*
X140266722Y-40540616D01*
X140255943Y-40441874D01*
X140254469Y-40432211D01*
X140204095Y-40189507D01*
X140131559Y-39956693D01*
X140037667Y-39735044D01*
X139923224Y-39525836D01*
X139789035Y-39330342D01*
X139635905Y-39149839D01*
X139464638Y-38985601D01*
X139276041Y-38838904D01*
X139227722Y-38806074D01*
X139017975Y-38681975D01*
X138799554Y-38580734D01*
X138574151Y-38502583D01*
X138343460Y-38447753D01*
X138109171Y-38416477D01*
X137872977Y-38408985D01*
X137636569Y-38425510D01*
X137401639Y-38466283D01*
X137185197Y-38526419D01*
X136957461Y-38614612D01*
X136741548Y-38724554D01*
X136538845Y-38855283D01*
X136350737Y-39005839D01*
X136178611Y-39175259D01*
X136075061Y-39296164D01*
X135981660Y-39412971D01*
X135922884Y-39370942D01*
X135893874Y-39350425D01*
X135848610Y-39318692D01*
X135791521Y-39278834D01*
X135727035Y-39233942D01*
X135659777Y-39187246D01*
X135597220Y-39143499D01*
X135542405Y-39104448D01*
X135498459Y-39072382D01*
X135468513Y-39049590D01*
X135455697Y-39038360D01*
X135455445Y-39037798D01*
X135463476Y-39020743D01*
X135485679Y-38988584D01*
X135519218Y-38944741D01*
X135561256Y-38892636D01*
X135608957Y-38835689D01*
X135659486Y-38777323D01*
X135710005Y-38720957D01*
X135757680Y-38670012D01*
X135775552Y-38651681D01*
X135979398Y-38462979D01*
X136195877Y-38295767D01*
X136424024Y-38150450D01*
X136662874Y-38027430D01*
X136911461Y-37927111D01*
X137168819Y-37849899D01*
X137433984Y-37796196D01*
X137705989Y-37766406D01*
X137907425Y-37759991D01*
X138163699Y-37768877D01*
X138406153Y-37796075D01*
X138639254Y-37842634D01*
X138867468Y-37909599D01*
X139095259Y-37998017D01*
X139268534Y-38079051D01*
X139507073Y-38212212D01*
X139731248Y-38365622D01*
X139939904Y-38538133D01*
X140131883Y-38728597D01*
X140306027Y-38935867D01*
X140461180Y-39158794D01*
X140596135Y-39396132D01*
X140709227Y-39643051D01*
X140798205Y-39893606D01*
X140864096Y-40150933D01*
X140890293Y-40292893D01*
X140918492Y-40468318D01*
X143961930Y-40461930D01*
X143971432Y-40373911D01*
X144004346Y-40160809D01*
X144056827Y-39940958D01*
X144126756Y-39720343D01*
X144212014Y-39504951D01*
X144310482Y-39300766D01*
X144414240Y-39122772D01*
X144511951Y-38981480D01*
X144623809Y-38838631D01*
X144744788Y-38699845D01*
X144869861Y-38570742D01*
X144994001Y-38456944D01*
X145053232Y-38408263D01*
X145278571Y-38246230D01*
X145513664Y-38107374D01*
X145758465Y-37991711D01*
X146012929Y-37899256D01*
X146277010Y-37830027D01*
X146550664Y-37784039D01*
X146833844Y-37761308D01*
X146891732Y-37759551D01*
X146968547Y-37758185D01*
X147040133Y-37757535D01*
X147101259Y-37757602D01*
X147146699Y-37758385D01*
X147168366Y-37759541D01*
X147338838Y-37778687D01*
X147490515Y-37800680D01*
X147629697Y-37826773D01*
X147762687Y-37858217D01*
X147895787Y-37896264D01*
X147960544Y-37916905D01*
X148211003Y-38012078D01*
X148449277Y-38128659D01*
X148674320Y-38265509D01*
X148885087Y-38421488D01*
X149080533Y-38595459D01*
X149259612Y-38786282D01*
X149421277Y-38992817D01*
X149564485Y-39213927D01*
X149688188Y-39448471D01*
X149791342Y-39695311D01*
X149872901Y-39953308D01*
X149889501Y-40018217D01*
X149915396Y-40129421D01*
X149935476Y-40229223D01*
X149950408Y-40323705D01*
X149960860Y-40418948D01*
X149967499Y-40521034D01*
X149970993Y-40636042D01*
X149972008Y-40770000D01*
X149971961Y-40776287D01*
X149312277Y-40776287D01*
X149300589Y-40526504D01*
X149265747Y-40284430D01*
X149208088Y-40051101D01*
X149127945Y-39827556D01*
X149025653Y-39614829D01*
X148901549Y-39413960D01*
X148848562Y-39340719D01*
X148696416Y-39159651D01*
X148527296Y-38996359D01*
X148342872Y-38851739D01*
X148144812Y-38726687D01*
X147934783Y-38622099D01*
X147714455Y-38538871D01*
X147485495Y-38477898D01*
X147249571Y-38440076D01*
X147155792Y-38431777D01*
X147096993Y-38427752D01*
X147045609Y-38424231D01*
X147008000Y-38421652D01*
X146992326Y-38420573D01*
X146970981Y-38420816D01*
X146929949Y-38422689D01*
X146874617Y-38425901D01*
X146810374Y-38430159D01*
X146791841Y-38431476D01*
X146547380Y-38460984D01*
X146312608Y-38512914D01*
X146088570Y-38586217D01*
X145876314Y-38679848D01*
X145676886Y-38792759D01*
X145491332Y-38923904D01*
X145320700Y-39072235D01*
X145166035Y-39236706D01*
X145028384Y-39416270D01*
X144908794Y-39609880D01*
X144808311Y-39816489D01*
X144727981Y-40035051D01*
X144668851Y-40264518D01*
X144631969Y-40503843D01*
X144623799Y-40600247D01*
X144619129Y-40849280D01*
X144637617Y-41092066D01*
X144678571Y-41327360D01*
X144741300Y-41553916D01*
X144825113Y-41770488D01*
X144929318Y-41975831D01*
X145053224Y-42168700D01*
X145196140Y-42347848D01*
X145357374Y-42512031D01*
X145536236Y-42660004D01*
X145732033Y-42790519D01*
X145886054Y-42874451D01*
X146104917Y-42969453D01*
X146332286Y-43041733D01*
X146565855Y-43091274D01*
X146803323Y-43118062D01*
X147042385Y-43122081D01*
X147280736Y-43103315D01*
X147516074Y-43061748D01*
X147746095Y-42997366D01*
X147968494Y-42910152D01*
X148014271Y-42888812D01*
X148223883Y-42774752D01*
X148417469Y-42641949D01*
X148594261Y-42491652D01*
X148753495Y-42325108D01*
X148894402Y-42143564D01*
X149016216Y-41948269D01*
X149118171Y-41740470D01*
X149199501Y-41521413D01*
X149259438Y-41292348D01*
X149297216Y-41054521D01*
X149312070Y-40809179D01*
X149312277Y-40776287D01*
X149971961Y-40776287D01*
X149970991Y-40903835D01*
X149967509Y-41018714D01*
X149960919Y-41120763D01*
X149950579Y-41216106D01*
X149935845Y-41310869D01*
X149916075Y-41411180D01*
X149894779Y-41505594D01*
X149820651Y-41767490D01*
X149724584Y-42018129D01*
X149607615Y-42256489D01*
X149470777Y-42481548D01*
X149315105Y-42692281D01*
X149141632Y-42887667D01*
X148951395Y-43066684D01*
X148745425Y-43228307D01*
X148524760Y-43371516D01*
X148290432Y-43495287D01*
X148043476Y-43598597D01*
X147784926Y-43680424D01*
X147665049Y-43709970D01*
X147561728Y-43732304D01*
X147470281Y-43749590D01*
X147384751Y-43762425D01*
X147299180Y-43771407D01*
X147207608Y-43777132D01*
X147104078Y-43780200D01*
X146982632Y-43781206D01*
X146954604Y-43781212D01*
X146819914Y-43779991D01*
X146704027Y-43776137D01*
X146600673Y-43768985D01*
X146503585Y-43757876D01*
X146406493Y-43742148D01*
X146303129Y-43721138D01*
X146232345Y-43704981D01*
X145986823Y-43635442D01*
X145745035Y-43544094D01*
X145511406Y-43433026D01*
X145290362Y-43304331D01*
X145098007Y-43169149D01*
X145006506Y-43094214D01*
X144908030Y-43005914D01*
X144809098Y-42910592D01*
X144716233Y-42814595D01*
X144635956Y-42724270D01*
X144616047Y-42700148D01*
X144464923Y-42494736D01*
X144330609Y-42274129D01*
X144214631Y-42041846D01*
X144118516Y-41801408D01*
X144043789Y-41556335D01*
X143991976Y-41310146D01*
X143980949Y-41235247D01*
X143973751Y-41182554D01*
X143967050Y-41136637D01*
X143962012Y-41105397D01*
X143961000Y-41100074D01*
X143955164Y-41071782D01*
X140912673Y-41071782D01*
X140912673Y-41101589D01*
X140910028Y-41134060D01*
X140902783Y-41185455D01*
X140891976Y-41250187D01*
X140878641Y-41322671D01*
X140863815Y-41397322D01*
X140848534Y-41468553D01*
X140833835Y-41530779D01*
X140831010Y-41541829D01*
X140753687Y-41790275D01*
X140653013Y-42032697D01*
X140530485Y-42266942D01*
X140387601Y-42490861D01*
X140225857Y-42702303D01*
X140046752Y-42899117D01*
X139851781Y-43079152D01*
X139654549Y-43231753D01*
X139427065Y-43377438D01*
X139188951Y-43501248D01*
X138941970Y-43602938D01*
X138687883Y-43682268D01*
X138428455Y-43738994D01*
X138165447Y-43772875D01*
X137900622Y-43783667D01*
X137635744Y-43771128D01*
X137635744Y-43771128D01*
G37*
X137635744Y-43771128D02*
X137372575Y-43735017D01*
X137112878Y-43675090D01*
X136907772Y-43609465D01*
X136651853Y-43503675D01*
X136407580Y-43375906D01*
X136176162Y-43227061D01*
X135958811Y-43058042D01*
X135756734Y-42869751D01*
X135571142Y-42663091D01*
X135476522Y-42541912D01*
X135443068Y-42496844D01*
X135703476Y-42315576D01*
X135775192Y-42266046D01*
X135840515Y-42221675D01*
X135896502Y-42184402D01*
X135940210Y-42156167D01*
X135968696Y-42138908D01*
X135978598Y-42134307D01*
X135993099Y-42143699D01*
X136016877Y-42168303D01*
X136044325Y-42202200D01*
X136187206Y-42372184D01*
X136349754Y-42529421D01*
X136528964Y-42672042D01*
X136721829Y-42798182D01*
X136925345Y-42905971D01*
X137136504Y-42993543D01*
X137352302Y-43059030D01*
X137462297Y-43083156D01*
X137702963Y-43116637D01*
X137943002Y-43125783D01*
X138180705Y-43111111D01*
X138414363Y-43073139D01*
X138642270Y-43012382D01*
X138862717Y-42929358D01*
X139073994Y-42824584D01*
X139274395Y-42698576D01*
X139462211Y-42551852D01*
X139579937Y-42442432D01*
X139745706Y-42260376D01*
X139889395Y-42066329D01*
X140011049Y-41860198D01*
X140110714Y-41641892D01*
X140188438Y-41411320D01*
X140244266Y-41168390D01*
X140254213Y-41109501D01*
X140265559Y-41012621D01*
X140272486Y-40899217D01*
X140274991Y-40777364D01*
X140273070Y-40655138D01*
X140266722Y-40540616D01*
X140255943Y-40441874D01*
X140254469Y-40432211D01*
X140204095Y-40189507D01*
X140131559Y-39956693D01*
X140037667Y-39735044D01*
X139923224Y-39525836D01*
X139789035Y-39330342D01*
X139635905Y-39149839D01*
X139464638Y-38985601D01*
X139276041Y-38838904D01*
X139227722Y-38806074D01*
X139017975Y-38681975D01*
X138799554Y-38580734D01*
X138574151Y-38502583D01*
X138343460Y-38447753D01*
X138109171Y-38416477D01*
X137872977Y-38408985D01*
X137636569Y-38425510D01*
X137401639Y-38466283D01*
X137185197Y-38526419D01*
X136957461Y-38614612D01*
X136741548Y-38724554D01*
X136538845Y-38855283D01*
X136350737Y-39005839D01*
X136178611Y-39175259D01*
X136075061Y-39296164D01*
X135981660Y-39412971D01*
X135922884Y-39370942D01*
X135893874Y-39350425D01*
X135848610Y-39318692D01*
X135791521Y-39278834D01*
X135727035Y-39233942D01*
X135659777Y-39187246D01*
X135597220Y-39143499D01*
X135542405Y-39104448D01*
X135498459Y-39072382D01*
X135468513Y-39049590D01*
X135455697Y-39038360D01*
X135455445Y-39037798D01*
X135463476Y-39020743D01*
X135485679Y-38988584D01*
X135519218Y-38944741D01*
X135561256Y-38892636D01*
X135608957Y-38835689D01*
X135659486Y-38777323D01*
X135710005Y-38720957D01*
X135757680Y-38670012D01*
X135775552Y-38651681D01*
X135979398Y-38462979D01*
X136195877Y-38295767D01*
X136424024Y-38150450D01*
X136662874Y-38027430D01*
X136911461Y-37927111D01*
X137168819Y-37849899D01*
X137433984Y-37796196D01*
X137705989Y-37766406D01*
X137907425Y-37759991D01*
X138163699Y-37768877D01*
X138406153Y-37796075D01*
X138639254Y-37842634D01*
X138867468Y-37909599D01*
X139095259Y-37998017D01*
X139268534Y-38079051D01*
X139507073Y-38212212D01*
X139731248Y-38365622D01*
X139939904Y-38538133D01*
X140131883Y-38728597D01*
X140306027Y-38935867D01*
X140461180Y-39158794D01*
X140596135Y-39396132D01*
X140709227Y-39643051D01*
X140798205Y-39893606D01*
X140864096Y-40150933D01*
X140890293Y-40292893D01*
X140918492Y-40468318D01*
X143961930Y-40461930D01*
X143971432Y-40373911D01*
X144004346Y-40160809D01*
X144056827Y-39940958D01*
X144126756Y-39720343D01*
X144212014Y-39504951D01*
X144310482Y-39300766D01*
X144414240Y-39122772D01*
X144511951Y-38981480D01*
X144623809Y-38838631D01*
X144744788Y-38699845D01*
X144869861Y-38570742D01*
X144994001Y-38456944D01*
X145053232Y-38408263D01*
X145278571Y-38246230D01*
X145513664Y-38107374D01*
X145758465Y-37991711D01*
X146012929Y-37899256D01*
X146277010Y-37830027D01*
X146550664Y-37784039D01*
X146833844Y-37761308D01*
X146891732Y-37759551D01*
X146968547Y-37758185D01*
X147040133Y-37757535D01*
X147101259Y-37757602D01*
X147146699Y-37758385D01*
X147168366Y-37759541D01*
X147338838Y-37778687D01*
X147490515Y-37800680D01*
X147629697Y-37826773D01*
X147762687Y-37858217D01*
X147895787Y-37896264D01*
X147960544Y-37916905D01*
X148211003Y-38012078D01*
X148449277Y-38128659D01*
X148674320Y-38265509D01*
X148885087Y-38421488D01*
X149080533Y-38595459D01*
X149259612Y-38786282D01*
X149421277Y-38992817D01*
X149564485Y-39213927D01*
X149688188Y-39448471D01*
X149791342Y-39695311D01*
X149872901Y-39953308D01*
X149889501Y-40018217D01*
X149915396Y-40129421D01*
X149935476Y-40229223D01*
X149950408Y-40323705D01*
X149960860Y-40418948D01*
X149967499Y-40521034D01*
X149970993Y-40636042D01*
X149972008Y-40770000D01*
X149971961Y-40776287D01*
X149312277Y-40776287D01*
X149300589Y-40526504D01*
X149265747Y-40284430D01*
X149208088Y-40051101D01*
X149127945Y-39827556D01*
X149025653Y-39614829D01*
X148901549Y-39413960D01*
X148848562Y-39340719D01*
X148696416Y-39159651D01*
X148527296Y-38996359D01*
X148342872Y-38851739D01*
X148144812Y-38726687D01*
X147934783Y-38622099D01*
X147714455Y-38538871D01*
X147485495Y-38477898D01*
X147249571Y-38440076D01*
X147155792Y-38431777D01*
X147096993Y-38427752D01*
X147045609Y-38424231D01*
X147008000Y-38421652D01*
X146992326Y-38420573D01*
X146970981Y-38420816D01*
X146929949Y-38422689D01*
X146874617Y-38425901D01*
X146810374Y-38430159D01*
X146791841Y-38431476D01*
X146547380Y-38460984D01*
X146312608Y-38512914D01*
X146088570Y-38586217D01*
X145876314Y-38679848D01*
X145676886Y-38792759D01*
X145491332Y-38923904D01*
X145320700Y-39072235D01*
X145166035Y-39236706D01*
X145028384Y-39416270D01*
X144908794Y-39609880D01*
X144808311Y-39816489D01*
X144727981Y-40035051D01*
X144668851Y-40264518D01*
X144631969Y-40503843D01*
X144623799Y-40600247D01*
X144619129Y-40849280D01*
X144637617Y-41092066D01*
X144678571Y-41327360D01*
X144741300Y-41553916D01*
X144825113Y-41770488D01*
X144929318Y-41975831D01*
X145053224Y-42168700D01*
X145196140Y-42347848D01*
X145357374Y-42512031D01*
X145536236Y-42660004D01*
X145732033Y-42790519D01*
X145886054Y-42874451D01*
X146104917Y-42969453D01*
X146332286Y-43041733D01*
X146565855Y-43091274D01*
X146803323Y-43118062D01*
X147042385Y-43122081D01*
X147280736Y-43103315D01*
X147516074Y-43061748D01*
X147746095Y-42997366D01*
X147968494Y-42910152D01*
X148014271Y-42888812D01*
X148223883Y-42774752D01*
X148417469Y-42641949D01*
X148594261Y-42491652D01*
X148753495Y-42325108D01*
X148894402Y-42143564D01*
X149016216Y-41948269D01*
X149118171Y-41740470D01*
X149199501Y-41521413D01*
X149259438Y-41292348D01*
X149297216Y-41054521D01*
X149312070Y-40809179D01*
X149312277Y-40776287D01*
X149971961Y-40776287D01*
X149970991Y-40903835D01*
X149967509Y-41018714D01*
X149960919Y-41120763D01*
X149950579Y-41216106D01*
X149935845Y-41310869D01*
X149916075Y-41411180D01*
X149894779Y-41505594D01*
X149820651Y-41767490D01*
X149724584Y-42018129D01*
X149607615Y-42256489D01*
X149470777Y-42481548D01*
X149315105Y-42692281D01*
X149141632Y-42887667D01*
X148951395Y-43066684D01*
X148745425Y-43228307D01*
X148524760Y-43371516D01*
X148290432Y-43495287D01*
X148043476Y-43598597D01*
X147784926Y-43680424D01*
X147665049Y-43709970D01*
X147561728Y-43732304D01*
X147470281Y-43749590D01*
X147384751Y-43762425D01*
X147299180Y-43771407D01*
X147207608Y-43777132D01*
X147104078Y-43780200D01*
X146982632Y-43781206D01*
X146954604Y-43781212D01*
X146819914Y-43779991D01*
X146704027Y-43776137D01*
X146600673Y-43768985D01*
X146503585Y-43757876D01*
X146406493Y-43742148D01*
X146303129Y-43721138D01*
X146232345Y-43704981D01*
X145986823Y-43635442D01*
X145745035Y-43544094D01*
X145511406Y-43433026D01*
X145290362Y-43304331D01*
X145098007Y-43169149D01*
X145006506Y-43094214D01*
X144908030Y-43005914D01*
X144809098Y-42910592D01*
X144716233Y-42814595D01*
X144635956Y-42724270D01*
X144616047Y-42700148D01*
X144464923Y-42494736D01*
X144330609Y-42274129D01*
X144214631Y-42041846D01*
X144118516Y-41801408D01*
X144043789Y-41556335D01*
X143991976Y-41310146D01*
X143980949Y-41235247D01*
X143973751Y-41182554D01*
X143967050Y-41136637D01*
X143962012Y-41105397D01*
X143961000Y-41100074D01*
X143955164Y-41071782D01*
X140912673Y-41071782D01*
X140912673Y-41101589D01*
X140910028Y-41134060D01*
X140902783Y-41185455D01*
X140891976Y-41250187D01*
X140878641Y-41322671D01*
X140863815Y-41397322D01*
X140848534Y-41468553D01*
X140833835Y-41530779D01*
X140831010Y-41541829D01*
X140753687Y-41790275D01*
X140653013Y-42032697D01*
X140530485Y-42266942D01*
X140387601Y-42490861D01*
X140225857Y-42702303D01*
X140046752Y-42899117D01*
X139851781Y-43079152D01*
X139654549Y-43231753D01*
X139427065Y-43377438D01*
X139188951Y-43501248D01*
X138941970Y-43602938D01*
X138687883Y-43682268D01*
X138428455Y-43738994D01*
X138165447Y-43772875D01*
X137900622Y-43783667D01*
X137635744Y-43771128D01*
D16*
X171385000Y-48295000D02*
X170735000Y-48295000D01*
X171385000Y-48045000D02*
X171385000Y-48295000D01*
X170735000Y-48045000D02*
X171385000Y-48045000D01*
X170735000Y-48295000D02*
X170735000Y-48045000D01*
X172285000Y-48265000D02*
X172285000Y-48015000D01*
X172285000Y-48015000D02*
X172935000Y-48015000D01*
X172935000Y-48015000D02*
X172935000Y-48265000D01*
X172935000Y-48265000D02*
X172285000Y-48265000D01*
X171705000Y-50915000D02*
X171705000Y-50265000D01*
X171955000Y-50915000D02*
X171705000Y-50915000D01*
X171955000Y-50265000D02*
X171955000Y-50915000D01*
X171705000Y-50265000D02*
X171955000Y-50265000D01*
X210548700Y-48000000D02*
X209148700Y-49895000D01*
X210548700Y-48000000D02*
X209148700Y-46105000D01*
X209148700Y-49895000D02*
X209148700Y-46105000D01*
X148165000Y-47165000D02*
X148165000Y-47815000D01*
X147915000Y-47165000D02*
X148165000Y-47165000D01*
X147915000Y-47815000D02*
X147915000Y-47165000D01*
X148165000Y-47815000D02*
X147915000Y-47815000D01*
X176835000Y-72135000D02*
X176835000Y-71485000D01*
X177085000Y-72135000D02*
X176835000Y-72135000D01*
X177085000Y-71485000D02*
X177085000Y-72135000D01*
X176835000Y-71485000D02*
X177085000Y-71485000D01*
X194485000Y-53485000D02*
X194485000Y-52835000D01*
X194735000Y-53485000D02*
X194485000Y-53485000D01*
X194735000Y-52835000D02*
X194735000Y-53485000D01*
X194485000Y-52835000D02*
X194735000Y-52835000D01*
X203035000Y-75625000D02*
X203035000Y-75875000D01*
X203035000Y-75875000D02*
X202385000Y-75875000D01*
X202385000Y-75875000D02*
X202385000Y-75625000D01*
X202385000Y-75625000D02*
X203035000Y-75625000D01*
X187325000Y-66275000D02*
X187325000Y-66525000D01*
X187325000Y-66525000D02*
X186675000Y-66525000D01*
X186675000Y-66525000D02*
X186675000Y-66275000D01*
X186675000Y-66275000D02*
X187325000Y-66275000D01*
X177210000Y-73910000D02*
X177560000Y-73560000D01*
X179860000Y-73560000D02*
X180210000Y-73560000D01*
X180210000Y-73560000D02*
X180210000Y-73910000D01*
X179860000Y-76560000D02*
X180210000Y-76560000D01*
X180210000Y-76560000D02*
X180210000Y-76210000D01*
X177560000Y-76560000D02*
X177210000Y-76560000D01*
X177210000Y-76560000D02*
X177210000Y-76210000D01*
X153630000Y-61490000D02*
X153630000Y-49190000D01*
X153630000Y-49190000D02*
X166530000Y-49190000D01*
X166530000Y-49190000D02*
X166530000Y-62090000D01*
X166530000Y-62090000D02*
X154230000Y-62090000D01*
X154230000Y-62090000D02*
X153630000Y-61490000D01*
X190245000Y-53345000D02*
X190245000Y-52695000D01*
X190495000Y-53345000D02*
X190245000Y-53345000D01*
X190495000Y-52695000D02*
X190495000Y-53345000D01*
X190245000Y-52695000D02*
X190495000Y-52695000D01*
X182085000Y-76935000D02*
X182085000Y-77185000D01*
X182085000Y-77185000D02*
X181435000Y-77185000D01*
X181435000Y-77185000D02*
X181435000Y-76935000D01*
X181435000Y-76935000D02*
X182085000Y-76935000D01*
D18*
X203660000Y-33160000D02*
X203660000Y-27640000D01*
X187030000Y-33160000D02*
X187030000Y-27640000D01*
X203660000Y-17350000D02*
X187030000Y-17350000D01*
X203660000Y-17350000D02*
X203660000Y-25220000D01*
X187030000Y-17350000D02*
X187030000Y-25220000D01*
X203660000Y-33160000D02*
X187030000Y-33160000D01*
D16*
X166065000Y-44315000D02*
X166715000Y-44315000D01*
X166065000Y-44565000D02*
X166065000Y-44315000D01*
X166715000Y-44565000D02*
X166065000Y-44565000D01*
X166715000Y-44315000D02*
X166715000Y-44565000D01*
X168215000Y-44315000D02*
X168215000Y-44565000D01*
X168215000Y-44565000D02*
X167565000Y-44565000D01*
X167565000Y-44565000D02*
X167565000Y-44315000D01*
X167565000Y-44315000D02*
X168215000Y-44315000D01*
X158130000Y-124380000D02*
X159430000Y-124380000D01*
X159430000Y-124380000D02*
X159430000Y-125580000D01*
X159430000Y-125580000D02*
X158130000Y-125580000D01*
X158130000Y-125580000D02*
X158130000Y-124380000D01*
X158455000Y-124380000D02*
X158455000Y-125580000D01*
X172005000Y-117885000D02*
X169755000Y-117885000D01*
X169755000Y-117885000D02*
X169755000Y-114075000D01*
X169755000Y-114075000D02*
X172605000Y-114075000D01*
X172605000Y-114075000D02*
X172605000Y-117285000D01*
X172605000Y-117285000D02*
X172005000Y-117885000D01*
X162970000Y-114980000D02*
X162970000Y-116980000D01*
X163970000Y-115980000D02*
X161970000Y-115980000D01*
X163970000Y-115980000D02*
G75*
G03X163970000Y-115980000I-1000000J0D01*
G01*
X166720000Y-119730000D02*
X166720000Y-112230000D01*
X159220000Y-119730000D02*
X166720000Y-119730000D01*
X159220000Y-112230000D02*
X159220000Y-119730000D01*
X166720000Y-112230000D02*
X159220000Y-112230000D01*
X168805000Y-119805000D02*
X168555000Y-119805000D01*
X168555000Y-119805000D02*
X168555000Y-119155000D01*
X168555000Y-119155000D02*
X168805000Y-119155000D01*
X168805000Y-119155000D02*
X168805000Y-119805000D01*
X168555000Y-112155000D02*
X168805000Y-112155000D01*
X168805000Y-112155000D02*
X168805000Y-112805000D01*
X168805000Y-112805000D02*
X168555000Y-112805000D01*
X168555000Y-112805000D02*
X168555000Y-112155000D01*
X176255000Y-114605000D02*
X175605000Y-114605000D01*
X176255000Y-114355000D02*
X176255000Y-114605000D01*
X175605000Y-114355000D02*
X176255000Y-114355000D01*
X175605000Y-114605000D02*
X175605000Y-114355000D01*
X175605000Y-117605000D02*
X175605000Y-117355000D01*
X175605000Y-117355000D02*
X176255000Y-117355000D01*
X176255000Y-117355000D02*
X176255000Y-117605000D01*
X176255000Y-117605000D02*
X175605000Y-117605000D01*
D18*
X146600000Y-31900000D02*
X144000000Y-31900000D01*
X146600000Y-17200000D02*
X146600000Y-31900000D01*
X137400000Y-31900000D02*
X137400000Y-30000000D01*
X140100000Y-31900000D02*
X137400000Y-31900000D01*
X137400000Y-17200000D02*
X146600000Y-17200000D01*
X137400000Y-26000000D02*
X137400000Y-17200000D01*
D16*
X161940000Y-70890000D02*
X164480000Y-70890000D01*
X164480000Y-70890000D02*
X164480000Y-73430000D01*
X164480000Y-73430000D02*
X161940000Y-73430000D01*
X161940000Y-73430000D02*
X161940000Y-70890000D01*
X174730000Y-70040000D02*
X174730000Y-72580000D01*
X172190000Y-70040000D02*
X174730000Y-70040000D01*
X172190000Y-72580000D02*
X172190000Y-70040000D01*
X174730000Y-72580000D02*
X172190000Y-72580000D01*
X200980000Y-76270000D02*
X198440000Y-76270000D01*
X198440000Y-76270000D02*
X198440000Y-73730000D01*
X198440000Y-73730000D02*
X200980000Y-73730000D01*
X200980000Y-73730000D02*
X200980000Y-76270000D01*
X205910000Y-70970000D02*
X205910000Y-73510000D01*
X203370000Y-70970000D02*
X205910000Y-70970000D01*
X203370000Y-73510000D02*
X203370000Y-70970000D01*
X205910000Y-73510000D02*
X203370000Y-73510000D01*
X171925000Y-26875000D02*
X171925000Y-26625000D01*
X171925000Y-26625000D02*
X172575000Y-26625000D01*
X172575000Y-26625000D02*
X172575000Y-26875000D01*
X172575000Y-26875000D02*
X171925000Y-26875000D01*
X152775000Y-68635000D02*
X152125000Y-68635000D01*
X152775000Y-68385000D02*
X152775000Y-68635000D01*
X152125000Y-68385000D02*
X152775000Y-68385000D01*
X152125000Y-68635000D02*
X152125000Y-68385000D01*
X154715000Y-68615000D02*
X154715000Y-68365000D01*
X154715000Y-68365000D02*
X155365000Y-68365000D01*
X155365000Y-68365000D02*
X155365000Y-68615000D01*
X155365000Y-68615000D02*
X154715000Y-68615000D01*
X174200000Y-23300000D02*
X174200000Y-21600000D01*
X173400000Y-23300000D02*
X174200000Y-23300000D01*
X166800000Y-23300000D02*
X167650000Y-23300000D01*
X166800000Y-21600000D02*
X166800000Y-23300000D01*
X154760000Y-72385000D02*
X152760000Y-72385000D01*
X152760000Y-70235000D02*
X154760000Y-70235000D01*
D18*
X131930000Y-138330000D02*
X131930000Y-122590000D01*
X131930000Y-122590000D02*
X141530000Y-122590000D01*
X141530000Y-122590000D02*
X141530000Y-138330000D01*
X141530000Y-138330000D02*
X131930000Y-138330000D01*
X207530000Y-138330000D02*
X197930000Y-138330000D01*
X207530000Y-122590000D02*
X207530000Y-138330000D01*
X197930000Y-122590000D02*
X207530000Y-122590000D01*
X197930000Y-138330000D02*
X197930000Y-122590000D01*
D16*
X212005000Y-38325000D02*
X212005000Y-37675000D01*
X212255000Y-38325000D02*
X212005000Y-38325000D01*
X212255000Y-37675000D02*
X212255000Y-38325000D01*
X212005000Y-37675000D02*
X212255000Y-37675000D01*
X212005000Y-33675000D02*
X212255000Y-33675000D01*
X212255000Y-33675000D02*
X212255000Y-34325000D01*
X212255000Y-34325000D02*
X212005000Y-34325000D01*
X212005000Y-34325000D02*
X212005000Y-33675000D01*
X212005000Y-36325000D02*
X212005000Y-35675000D01*
X212255000Y-36325000D02*
X212005000Y-36325000D01*
X212255000Y-35675000D02*
X212255000Y-36325000D01*
X212005000Y-35675000D02*
X212255000Y-35675000D01*
X192855000Y-57865000D02*
X192605000Y-57865000D01*
X192605000Y-57865000D02*
X192605000Y-57215000D01*
X192605000Y-57215000D02*
X192855000Y-57215000D01*
X192855000Y-57215000D02*
X192855000Y-57865000D01*
X199155000Y-36485000D02*
X199155000Y-37135000D01*
X198905000Y-36485000D02*
X199155000Y-36485000D01*
X198905000Y-37135000D02*
X198905000Y-36485000D01*
X199155000Y-37135000D02*
X198905000Y-37135000D01*
X182345000Y-60555000D02*
X182095000Y-60555000D01*
X182095000Y-60555000D02*
X182095000Y-59905000D01*
X182095000Y-59905000D02*
X182345000Y-59905000D01*
X182345000Y-59905000D02*
X182345000Y-60555000D01*
X182095000Y-62055000D02*
X182095000Y-61405000D01*
X182345000Y-62055000D02*
X182095000Y-62055000D01*
X182345000Y-61405000D02*
X182345000Y-62055000D01*
X182095000Y-61405000D02*
X182345000Y-61405000D01*
X176145000Y-125075000D02*
X175895000Y-125075000D01*
X175895000Y-125075000D02*
X175895000Y-124425000D01*
X175895000Y-124425000D02*
X176145000Y-124425000D01*
X176145000Y-124425000D02*
X176145000Y-125075000D01*
X182805000Y-66505000D02*
X182155000Y-66505000D01*
X182805000Y-66255000D02*
X182805000Y-66505000D01*
X182155000Y-66255000D02*
X182805000Y-66255000D01*
X182155000Y-66505000D02*
X182155000Y-66255000D01*
X183655000Y-66505000D02*
X183655000Y-66255000D01*
X183655000Y-66255000D02*
X184305000Y-66255000D01*
X184305000Y-66255000D02*
X184305000Y-66505000D01*
X184305000Y-66505000D02*
X183655000Y-66505000D01*
X184825000Y-34125000D02*
X184175000Y-34125000D01*
X184825000Y-33875000D02*
X184825000Y-34125000D01*
X184175000Y-33875000D02*
X184825000Y-33875000D01*
X184175000Y-34125000D02*
X184175000Y-33875000D01*
X153485000Y-43375000D02*
X153485000Y-44025000D01*
X153235000Y-43375000D02*
X153485000Y-43375000D01*
X153235000Y-44025000D02*
X153235000Y-43375000D01*
X153485000Y-44025000D02*
X153235000Y-44025000D01*
X189685000Y-66525000D02*
X189685000Y-66275000D01*
X189685000Y-66275000D02*
X190335000Y-66275000D01*
X190335000Y-66275000D02*
X190335000Y-66525000D01*
X190335000Y-66525000D02*
X189685000Y-66525000D01*
X212005000Y-40325000D02*
X212005000Y-39675000D01*
X212255000Y-40325000D02*
X212005000Y-40325000D01*
X212255000Y-39675000D02*
X212255000Y-40325000D01*
X212005000Y-39675000D02*
X212255000Y-39675000D01*
X162395000Y-125325000D02*
X162395000Y-124675000D01*
X162645000Y-125325000D02*
X162395000Y-125325000D01*
X162645000Y-124675000D02*
X162645000Y-125325000D01*
X162395000Y-124675000D02*
X162645000Y-124675000D01*
X210635000Y-79125000D02*
X210635000Y-78875000D01*
X210635000Y-78875000D02*
X211285000Y-78875000D01*
X211285000Y-78875000D02*
X211285000Y-79125000D01*
X211285000Y-79125000D02*
X210635000Y-79125000D01*
X162395000Y-126825000D02*
X162395000Y-126175000D01*
X162645000Y-126825000D02*
X162395000Y-126825000D01*
X162645000Y-126175000D02*
X162645000Y-126825000D01*
X162395000Y-126175000D02*
X162645000Y-126175000D01*
X162395000Y-127675000D02*
X162645000Y-127675000D01*
X162645000Y-127675000D02*
X162645000Y-128325000D01*
X162645000Y-128325000D02*
X162395000Y-128325000D01*
X162395000Y-128325000D02*
X162395000Y-127675000D01*
X162395000Y-129825000D02*
X162395000Y-129175000D01*
X162645000Y-129825000D02*
X162395000Y-129825000D01*
X162645000Y-129175000D02*
X162645000Y-129825000D01*
X162395000Y-129175000D02*
X162645000Y-129175000D01*
X176145000Y-126575000D02*
X175895000Y-126575000D01*
X175895000Y-126575000D02*
X175895000Y-125925000D01*
X175895000Y-125925000D02*
X176145000Y-125925000D01*
X176145000Y-125925000D02*
X176145000Y-126575000D01*
X176145000Y-127425000D02*
X176145000Y-128075000D01*
X175895000Y-127425000D02*
X176145000Y-127425000D01*
X175895000Y-128075000D02*
X175895000Y-127425000D01*
X176145000Y-128075000D02*
X175895000Y-128075000D01*
X209785000Y-78875000D02*
X209785000Y-79125000D01*
X209785000Y-79125000D02*
X209135000Y-79125000D01*
X209135000Y-79125000D02*
X209135000Y-78875000D01*
X209135000Y-78875000D02*
X209785000Y-78875000D01*
X202325000Y-70125000D02*
X201675000Y-70125000D01*
X202325000Y-69875000D02*
X202325000Y-70125000D01*
X201675000Y-69875000D02*
X202325000Y-69875000D01*
X201675000Y-70125000D02*
X201675000Y-69875000D01*
X198425000Y-66125000D02*
X198425000Y-65875000D01*
X198425000Y-65875000D02*
X199075000Y-65875000D01*
X199075000Y-65875000D02*
X199075000Y-66125000D01*
X199075000Y-66125000D02*
X198425000Y-66125000D01*
X206085000Y-84075000D02*
X206085000Y-83425000D01*
X206335000Y-84075000D02*
X206085000Y-84075000D01*
X206335000Y-83425000D02*
X206335000Y-84075000D01*
X206085000Y-83425000D02*
X206335000Y-83425000D01*
X176145000Y-129575000D02*
X175895000Y-129575000D01*
X175895000Y-129575000D02*
X175895000Y-128925000D01*
X175895000Y-128925000D02*
X176145000Y-128925000D01*
X176145000Y-128925000D02*
X176145000Y-129575000D01*
X188835000Y-66525000D02*
X188185000Y-66525000D01*
X188835000Y-66275000D02*
X188835000Y-66525000D01*
X188185000Y-66275000D02*
X188835000Y-66275000D01*
X188185000Y-66525000D02*
X188185000Y-66275000D01*
X165405000Y-67705000D02*
X166055000Y-67705000D01*
X165405000Y-67955000D02*
X165405000Y-67705000D01*
X166055000Y-67955000D02*
X165405000Y-67955000D01*
X166055000Y-67705000D02*
X166055000Y-67955000D01*
X194375000Y-56115000D02*
X194375000Y-55465000D01*
X194625000Y-56115000D02*
X194375000Y-56115000D01*
X194625000Y-55465000D02*
X194625000Y-56115000D01*
X194375000Y-55465000D02*
X194625000Y-55465000D01*
X167555000Y-67695000D02*
X167555000Y-67945000D01*
X167555000Y-67945000D02*
X166905000Y-67945000D01*
X166905000Y-67945000D02*
X166905000Y-67695000D01*
X166905000Y-67695000D02*
X167555000Y-67695000D01*
X205835000Y-76425000D02*
X205835000Y-77075000D01*
X205585000Y-76425000D02*
X205835000Y-76425000D01*
X205585000Y-77075000D02*
X205585000Y-76425000D01*
X205835000Y-77075000D02*
X205585000Y-77075000D01*
X209835000Y-82125000D02*
X209835000Y-82375000D01*
X209835000Y-82375000D02*
X209185000Y-82375000D01*
X209185000Y-82375000D02*
X209185000Y-82125000D01*
X209185000Y-82125000D02*
X209835000Y-82125000D01*
X202535000Y-81125000D02*
X201885000Y-81125000D01*
X202535000Y-80875000D02*
X202535000Y-81125000D01*
X201885000Y-80875000D02*
X202535000Y-80875000D01*
X201885000Y-81125000D02*
X201885000Y-80875000D01*
X151285000Y-68405000D02*
X151285000Y-68655000D01*
X151285000Y-68655000D02*
X150635000Y-68655000D01*
X150635000Y-68655000D02*
X150635000Y-68405000D01*
X150635000Y-68405000D02*
X151285000Y-68405000D01*
X183975000Y-56575000D02*
X183975000Y-57225000D01*
X183725000Y-56575000D02*
X183975000Y-56575000D01*
X183725000Y-57225000D02*
X183725000Y-56575000D01*
X183975000Y-57225000D02*
X183725000Y-57225000D01*
X180275000Y-56575000D02*
X180525000Y-56575000D01*
X180525000Y-56575000D02*
X180525000Y-57225000D01*
X180525000Y-57225000D02*
X180275000Y-57225000D01*
X180275000Y-57225000D02*
X180275000Y-56575000D01*
X190655000Y-58645000D02*
X190005000Y-58645000D01*
X190655000Y-58395000D02*
X190655000Y-58645000D01*
X190005000Y-58395000D02*
X190655000Y-58395000D01*
X190005000Y-58645000D02*
X190005000Y-58395000D01*
X164545000Y-67705000D02*
X164545000Y-67955000D01*
X164545000Y-67955000D02*
X163895000Y-67955000D01*
X163895000Y-67955000D02*
X163895000Y-67705000D01*
X163895000Y-67705000D02*
X164545000Y-67705000D01*
X182175000Y-48665000D02*
X182175000Y-48915000D01*
X182175000Y-48915000D02*
X181525000Y-48915000D01*
X181525000Y-48915000D02*
X181525000Y-48665000D01*
X181525000Y-48665000D02*
X182175000Y-48665000D01*
X190235000Y-56355000D02*
X190235000Y-55705000D01*
X190485000Y-56355000D02*
X190235000Y-56355000D01*
X190485000Y-55705000D02*
X190485000Y-56355000D01*
X190235000Y-55705000D02*
X190485000Y-55705000D01*
X185825000Y-66275000D02*
X185825000Y-66525000D01*
X185825000Y-66525000D02*
X185175000Y-66525000D01*
X185175000Y-66525000D02*
X185175000Y-66275000D01*
X185175000Y-66275000D02*
X185825000Y-66275000D01*
X194735000Y-51985000D02*
X194485000Y-51985000D01*
X194485000Y-51985000D02*
X194485000Y-51335000D01*
X194485000Y-51335000D02*
X194735000Y-51335000D01*
X194735000Y-51335000D02*
X194735000Y-51985000D01*
X158905000Y-67955000D02*
X158255000Y-67955000D01*
X158905000Y-67705000D02*
X158905000Y-67955000D01*
X158255000Y-67705000D02*
X158905000Y-67705000D01*
X158255000Y-67955000D02*
X158255000Y-67705000D01*
X162755000Y-67695000D02*
X162755000Y-67945000D01*
X162755000Y-67945000D02*
X162105000Y-67945000D01*
X162105000Y-67945000D02*
X162105000Y-67695000D01*
X162105000Y-67695000D02*
X162755000Y-67695000D01*
X190235000Y-54205000D02*
X190485000Y-54205000D01*
X190485000Y-54205000D02*
X190485000Y-54855000D01*
X190485000Y-54855000D02*
X190235000Y-54855000D01*
X190235000Y-54855000D02*
X190235000Y-54205000D01*
X153235000Y-44885000D02*
X153485000Y-44885000D01*
X153485000Y-44885000D02*
X153485000Y-45535000D01*
X153485000Y-45535000D02*
X153235000Y-45535000D01*
X153235000Y-45535000D02*
X153235000Y-44885000D01*
X169965000Y-60785000D02*
X170615000Y-60785000D01*
X169965000Y-61035000D02*
X169965000Y-60785000D01*
X170615000Y-61035000D02*
X169965000Y-61035000D01*
X170615000Y-60785000D02*
X170615000Y-61035000D01*
X149255000Y-61145000D02*
X149255000Y-60895000D01*
X149255000Y-60895000D02*
X149905000Y-60895000D01*
X149905000Y-60895000D02*
X149905000Y-61145000D01*
X149905000Y-61145000D02*
X149255000Y-61145000D01*
X156405000Y-67745000D02*
X157055000Y-67745000D01*
X156405000Y-67995000D02*
X156405000Y-67745000D01*
X157055000Y-67995000D02*
X156405000Y-67995000D01*
X157055000Y-67745000D02*
X157055000Y-67995000D01*
X160605000Y-67945000D02*
X160605000Y-67695000D01*
X160605000Y-67695000D02*
X161255000Y-67695000D01*
X161255000Y-67695000D02*
X161255000Y-67945000D01*
X161255000Y-67945000D02*
X160605000Y-67945000D01*
X208505000Y-40550000D02*
X208505000Y-39450000D01*
X208755000Y-40550000D02*
X208505000Y-40550000D01*
X208755000Y-39450000D02*
X208755000Y-40550000D01*
X208505000Y-39450000D02*
X208755000Y-39450000D01*
X208505000Y-37450000D02*
X208755000Y-37450000D01*
X208755000Y-37450000D02*
X208755000Y-38550000D01*
X208755000Y-38550000D02*
X208505000Y-38550000D01*
X208505000Y-38550000D02*
X208505000Y-37450000D01*
X208505000Y-34550000D02*
X208505000Y-33450000D01*
X208755000Y-34550000D02*
X208505000Y-34550000D01*
X208755000Y-33450000D02*
X208755000Y-34550000D01*
X208505000Y-33450000D02*
X208755000Y-33450000D01*
X208505000Y-35450000D02*
X208755000Y-35450000D01*
X208755000Y-35450000D02*
X208755000Y-36550000D01*
X208755000Y-36550000D02*
X208505000Y-36550000D01*
X208505000Y-36550000D02*
X208505000Y-35450000D01*
X199050000Y-62375000D02*
X199050000Y-62625000D01*
X199050000Y-62625000D02*
X197950000Y-62625000D01*
X197950000Y-62625000D02*
X197950000Y-62375000D01*
X197950000Y-62375000D02*
X199050000Y-62375000D01*
X200885000Y-79525000D02*
X200885000Y-80975000D01*
X200885000Y-80975000D02*
X198535000Y-80975000D01*
X198535000Y-80975000D02*
X198535000Y-79525000D01*
X198535000Y-79525000D02*
X200885000Y-79525000D01*
X193695000Y-42420000D02*
X193695000Y-47680000D01*
X193695000Y-47680000D02*
X184805000Y-47680000D01*
X184805000Y-47680000D02*
X184805000Y-41820000D01*
X184805000Y-41820000D02*
X193095000Y-41820000D01*
X193095000Y-41820000D02*
X193695000Y-42420000D01*
X200500000Y-69100000D02*
X200500000Y-71500000D01*
X197500000Y-68500000D02*
X197500000Y-71500000D01*
X200500000Y-69100000D02*
G75*
G03X200500000Y-68500000I0J300000D01*
G01*
X208952716Y-58895000D02*
X208952716Y-55105000D01*
X210352716Y-57000000D02*
X208952716Y-55105000D01*
X210352716Y-57000000D02*
X208952716Y-58895000D01*
X203233372Y-43513756D02*
X201833372Y-45408756D01*
X203233372Y-43513756D02*
X201833372Y-41618756D01*
X201833372Y-45408756D02*
X201833372Y-41618756D01*
X201898700Y-49895000D02*
X201898700Y-46105000D01*
X203298700Y-48000000D02*
X201898700Y-46105000D01*
X203298700Y-48000000D02*
X201898700Y-49895000D01*
X203102716Y-57000000D02*
X201702716Y-58895000D01*
X203102716Y-57000000D02*
X201702716Y-55105000D01*
X201702716Y-58895000D02*
X201702716Y-55105000D01*
X209300000Y-45408756D02*
X209300000Y-41618756D01*
X210700000Y-43513756D02*
X209300000Y-41618756D01*
X210700000Y-43513756D02*
X209300000Y-45408756D01*
X209083372Y-54504644D02*
X209083372Y-50714644D01*
X210483372Y-52609644D02*
X209083372Y-50714644D01*
X210483372Y-52609644D02*
X209083372Y-54504644D01*
X203233372Y-52609644D02*
X201833372Y-54504644D01*
X203233372Y-52609644D02*
X201833372Y-50714644D01*
X201833372Y-54504644D02*
X201833372Y-50714644D01*
X201250000Y-63450000D02*
X202635000Y-64550000D01*
X201250000Y-63450000D02*
X199865000Y-64550000D01*
X202635000Y-64550000D02*
X199865000Y-64550000D01*
X158285500Y-26725000D02*
X157460000Y-26725000D01*
X157460000Y-26725000D02*
X157460000Y-25264500D01*
X157460000Y-25264500D02*
X158285500Y-25264500D01*
X158285500Y-21645000D02*
X157460000Y-21645000D01*
X157460000Y-21645000D02*
X157460000Y-23105500D01*
X157460000Y-23105500D02*
X158285500Y-23105500D01*
X161714500Y-21645000D02*
X162540000Y-21645000D01*
X162540000Y-21645000D02*
X162540000Y-26725000D01*
X162540000Y-26725000D02*
X161714500Y-26725000D01*
X161714500Y-24185000D02*
X161714500Y-27360000D01*
X161714500Y-27360000D02*
X158285500Y-27360000D01*
X158285500Y-27360000D02*
X158285500Y-21010000D01*
X158285500Y-21010000D02*
X161714500Y-21010000D01*
X161714500Y-21010000D02*
X161714500Y-24185000D01*
X204410000Y-82250000D02*
X203810000Y-81650000D01*
X203810000Y-78850000D02*
X203810000Y-78250000D01*
X203810000Y-78250000D02*
X204410000Y-78250000D01*
X207810000Y-78850000D02*
X207810000Y-78250000D01*
X207810000Y-78250000D02*
X207210000Y-78250000D01*
X207810000Y-81650000D02*
X207810000Y-82250000D01*
X207810000Y-82250000D02*
X207210000Y-82250000D01*
X188690000Y-59150000D02*
X189040000Y-59500000D01*
X189040000Y-62800000D02*
X189040000Y-63150000D01*
X189040000Y-63150000D02*
X188690000Y-63150000D01*
X185040000Y-62800000D02*
X185040000Y-63150000D01*
X185040000Y-63150000D02*
X185390000Y-63150000D01*
X185040000Y-59500000D02*
X185040000Y-59150000D01*
X185040000Y-59150000D02*
X185390000Y-59150000D01*
X193750000Y-59830000D02*
X192450000Y-59830000D01*
X192450000Y-59830000D02*
X192450000Y-58630000D01*
X192450000Y-58630000D02*
X193750000Y-58630000D01*
X193750000Y-58630000D02*
X193750000Y-59830000D01*
X193425000Y-59830000D02*
X193425000Y-58630000D01*
X147750000Y-49150000D02*
X147750000Y-49150000D01*
X147750000Y-49150000D02*
X147750000Y-51050000D01*
X147750000Y-51050000D02*
X147250000Y-51050000D01*
X147250000Y-51050000D02*
X147250000Y-49650000D01*
X147250000Y-49650000D02*
X147750000Y-49150000D01*
X159230000Y-71780000D02*
X159330000Y-71780000D01*
X158580000Y-70730000D02*
X158580000Y-71030000D01*
X159230000Y-69980000D02*
X159330000Y-69980000D01*
X159980000Y-70730000D02*
X159980000Y-71030000D01*
X181250000Y-52875000D02*
X183050000Y-52875000D01*
X183050000Y-52875000D02*
X183050000Y-55925000D01*
X183050000Y-55925000D02*
X181250000Y-55925000D01*
X181250000Y-55925000D02*
X181250000Y-52875000D01*
X203140000Y-60950000D02*
X203140000Y-67450000D01*
X213140000Y-59450000D02*
X204640000Y-59450000D01*
X211640000Y-69450000D02*
X205140000Y-69450000D01*
X213140000Y-59450000D02*
X213140000Y-67950000D01*
X203140000Y-67450000D02*
X205140000Y-69450000D01*
X204640000Y-59450000D02*
X203140000Y-60950000D01*
X213140000Y-67950000D02*
X211640000Y-69450000D01*
X185460000Y-85500000D02*
X185460000Y-82750000D01*
X196960000Y-85500000D02*
X185460000Y-85500000D01*
X196960000Y-82750000D02*
X196960000Y-85500000D01*
X196960000Y-74000000D02*
X196960000Y-76750000D01*
X185460000Y-74000000D02*
X185460000Y-76750000D01*
X196960000Y-74000000D02*
X185460000Y-74000000D01*
X196710000Y-79750000D02*
G75*
G03X196710000Y-79750000I-5500000J0D01*
G01*
X179085000Y-78385000D02*
X178835000Y-78385000D01*
X178835000Y-78385000D02*
X178835000Y-77735000D01*
X178835000Y-77735000D02*
X179085000Y-77735000D01*
X179085000Y-77735000D02*
X179085000Y-78385000D01*
X182035000Y-73935000D02*
X181385000Y-73935000D01*
X182035000Y-73685000D02*
X182035000Y-73935000D01*
X181385000Y-73685000D02*
X182035000Y-73685000D01*
X181385000Y-73935000D02*
X181385000Y-73685000D01*
X162355000Y-122835000D02*
X162605000Y-122835000D01*
X162605000Y-122835000D02*
X162605000Y-123485000D01*
X162605000Y-123485000D02*
X162355000Y-123485000D01*
X162355000Y-123485000D02*
X162355000Y-122835000D01*
X168750000Y-124555000D02*
X171550000Y-124555000D01*
X171550000Y-124555000D02*
X171550000Y-129105000D01*
X171550000Y-129105000D02*
X168150000Y-129105000D01*
X168150000Y-129105000D02*
X168150000Y-125155000D01*
X168150000Y-125155000D02*
X168750000Y-124555000D01*
X174110000Y-74410000D02*
X174110000Y-75210000D01*
X175810000Y-74410000D02*
X174110000Y-74410000D01*
X175810000Y-75210000D02*
X175810000Y-74410000D01*
X174110000Y-75210000D02*
X175810000Y-75210000D01*
X153283809Y-68986190D02*
X153283809Y-69462380D01*
X152950476Y-68462380D02*
X153283809Y-68986190D01*
X153617142Y-68462380D01*
X153855238Y-68462380D02*
X154474285Y-68462380D01*
X154140952Y-68843333D01*
X154283809Y-68843333D01*
X154379047Y-68890952D01*
X154426666Y-68938571D01*
X154474285Y-69033809D01*
X154474285Y-69271904D01*
X154426666Y-69367142D01*
X154379047Y-69414761D01*
X154283809Y-69462380D01*
X153998095Y-69462380D01*
X153902857Y-69414761D01*
X153855238Y-69367142D01*
D19*
G36*
X151873000Y-153373000D02*
X142627000Y-153373000D01*
X142627000Y-149127000D01*
X151873000Y-149127000D01*
X151873000Y-153373000D01*
X151873000Y-153373000D01*
G37*
X151873000Y-153373000D02*
X142627000Y-153373000D01*
X142627000Y-149127000D01*
X151873000Y-149127000D01*
X151873000Y-153373000D01*
G36*
X162373000Y-153373000D02*
X153127000Y-153373000D01*
X153127000Y-149127000D01*
X162373000Y-149127000D01*
X162373000Y-153373000D01*
X162373000Y-153373000D01*
G37*
X162373000Y-153373000D02*
X153127000Y-153373000D01*
X153127000Y-149127000D01*
X162373000Y-149127000D01*
X162373000Y-153373000D01*
G36*
X172873000Y-153373000D02*
X163627000Y-153373000D01*
X163627000Y-149127000D01*
X172873000Y-149127000D01*
X172873000Y-153373000D01*
X172873000Y-153373000D01*
G37*
X172873000Y-153373000D02*
X163627000Y-153373000D01*
X163627000Y-149127000D01*
X172873000Y-149127000D01*
X172873000Y-153373000D01*
G36*
X183373000Y-153373000D02*
X174127000Y-153373000D01*
X174127000Y-149127000D01*
X183373000Y-149127000D01*
X183373000Y-153373000D01*
X183373000Y-153373000D01*
G37*
X183373000Y-153373000D02*
X174127000Y-153373000D01*
X174127000Y-149127000D01*
X183373000Y-149127000D01*
X183373000Y-153373000D01*
G36*
X193873000Y-153373000D02*
X184627000Y-153373000D01*
X184627000Y-149127000D01*
X193873000Y-149127000D01*
X193873000Y-153373000D01*
X193873000Y-153373000D01*
G37*
X193873000Y-153373000D02*
X184627000Y-153373000D01*
X184627000Y-149127000D01*
X193873000Y-149127000D01*
X193873000Y-153373000D01*
G36*
X204373000Y-153373000D02*
X195127000Y-153373000D01*
X195127000Y-149127000D01*
X204373000Y-149127000D01*
X204373000Y-153373000D01*
X204373000Y-153373000D01*
G37*
X204373000Y-153373000D02*
X195127000Y-153373000D01*
X195127000Y-149127000D01*
X204373000Y-149127000D01*
X204373000Y-153373000D01*
M02*
