M48
;DRILL file {KiCad no-vcs-found-40f60c9~58~ubuntu16.04.1} date Fri Mar 31 16:18:36 2017
;FORMAT={-:-/ absolute / inch / decimal}
FMAT,2
INCH,TZ
T1C0.008
T2C0.014
T3C0.016
T4C0.024
T5C0.025
T6C0.026
T7C0.030
T8C0.035
T9C0.039
T10C0.040
T11C0.062
T12C0.063
T13C0.130
T14C0.024
T15C0.039
T16C0.130
%
G90
G05
M72
T1
X7.0122Y-2.9315
X7.0122Y-2.9787
X7.0594Y-2.9315
X7.0594Y-2.9787
T2
X7.3402Y-2.3839
X7.3402Y-2.4311
X7.3874Y-2.3839
X7.3874Y-2.4311
X8.0575Y-3.1142
X8.0575Y-3.1594
X8.0575Y-3.2047
X8.1028Y-3.1142
X8.1028Y-3.1594
X8.1028Y-3.2047
X8.148Y-3.1142
X8.148Y-3.1594
X8.148Y-3.2047
T3
X5.4441Y-2.7094
X5.52Y-4.3414
X5.574Y-2.2768
X5.6374Y-2.3008
X5.6575Y-4.2394
X5.6594Y-2.2487
X5.6657Y-2.7071
X5.6736Y-2.3665
X5.7489Y-2.3232
X5.7524Y-2.2441
X5.7525Y-2.284
X5.7534Y-2.3924
X5.8012Y-1.9362
X5.8039Y-1.9823
X5.8197Y-1.8189
X5.8386Y-2.3736
X5.8772Y-0.9008
X5.9106Y-1.
X5.9217Y-0.8602
X5.9276Y-1.9839
X5.9429Y-2.7835
X5.9452Y-1.5747
X5.9594Y-1.722
X5.9961Y-1.5699
X5.9969Y-1.4916
X6.0009Y-1.5308
X6.0031Y-2.6224
X6.0228Y-1.4575
X6.0449Y-0.9512
X6.0622Y-2.3087
X6.0886Y-0.9091
X6.1055Y-2.6205
X6.1717Y-2.7583
X6.1898Y-0.813
X6.2425Y-2.4362
X6.2484Y-2.8654
X6.2508Y-2.5933
X6.3126Y-4.8484
X6.3323Y-2.7622
X6.3346Y-2.5953
X6.3965Y-2.7528
X6.4401Y-2.433
X6.465Y-2.7531
X6.4902Y-1.8327
X6.5173Y-5.1039
X6.5248Y-2.7531
X6.5335Y-2.2677
X6.5457Y-2.2087
X6.5472Y-1.9933
X6.5669Y-4.5409
X6.5669Y-4.5913
X6.5843Y-2.7547
X6.5988Y-1.1906
X6.6331Y-4.965
X6.6339Y-4.8209
X6.6354Y-4.9
X6.6437Y-1.0039
X6.6602Y-2.185
X6.6681Y-1.2602
X6.6786Y-2.223
X6.6921Y-5.8098
X6.7295Y-4.4283
X6.7362Y-1.815
X6.7575Y-2.4311
X6.7913Y-1.815
X6.8008Y-4.8535
X6.8465Y-1.9921
X6.9571Y-3.0732
X6.978Y-4.5949
X6.9791Y-4.5398
X6.9898Y-2.8669
X7.0319Y-2.4516
X7.0559Y-2.8642
X7.0571Y-2.774
X7.1031Y-1.9528
X7.1335Y-2.8209
X7.148Y-2.3142
X7.1539Y-3.1126
X7.1693Y-2.1957
X7.3047Y-2.6874
X7.3626Y-2.6878
X7.4461Y-2.2953
X7.4512Y-2.4894
X7.4752Y-2.387
X7.5701Y-2.2055
X7.5705Y-2.1472
X7.5752Y-2.0933
X7.6642Y-1.985
X7.6941Y-2.1398
X7.7496Y-1.45
X7.7622Y-2.8142
X7.8661Y-3.0504
X7.9272Y-3.0772
X7.9587Y-1.5587
X7.9661Y-3.1004
X7.9976Y-1.5472
X8.0098Y-3.0902
X8.0339Y-1.2791
X8.0346Y-3.0654
X8.0413Y-1.4457
X8.0417Y-1.5457
X8.0791Y-1.4638
X8.1094Y-1.4933
X8.1874Y-3.248
X8.2661Y-3.0264
T5
X6.2742Y-0.8522
X6.2742Y-0.9022
X6.2742Y-0.9522
X6.2742Y-1.0022
X6.2742Y-1.0522
X6.3242Y-0.8522
X6.3242Y-0.9022
X6.3242Y-0.9522
X6.3242Y-1.0022
X6.3242Y-1.0522
T7
X6.3161Y-4.5661
X6.4161Y-4.4661
X6.4161Y-4.6661
T8
X7.4177Y-1.3457
X7.5075Y-1.3457
X7.5476Y-1.0858
X7.5878Y-1.1559
X7.6276Y-1.0858
X7.6677Y-1.1559
X7.7075Y-1.0858
X7.7476Y-1.1559
X7.7878Y-1.0858
X7.8276Y-1.1559
X7.8677Y-1.3457
X7.9575Y-1.3457
T9
X6.4256Y-2.8409
X6.6906Y-6.1413
X6.8291Y-2.8075
X7.8626Y-2.9528
X8.0567Y-2.8441
X8.2823Y-2.8374
T10
X5.3331Y-5.0362
X5.3331Y-5.1362
X5.3331Y-5.2362
X5.4331Y-5.0362
X5.4331Y-5.1362
X5.4331Y-5.2362
X7.9315Y-5.0362
X7.9315Y-5.1362
X7.9315Y-5.2362
X8.0315Y-5.0362
X8.0315Y-5.1362
X8.0315Y-5.2362
T11
X7.3677Y-1.1209
X8.0075Y-1.1209
T12
X6.2929Y-1.437
X6.2929Y-5.6496
X6.4929Y-1.437
X6.4929Y-5.6496
X6.6929Y-1.437
X6.6929Y-5.6496
X6.8929Y-1.437
X6.8929Y-5.6496
X7.0929Y-1.437
X7.0929Y-5.6496
T13
X7.4378Y-0.9858
X7.9378Y-0.9858
T14
X5.0197Y-0.9449
X5.0197Y-6.1417
X5.0472Y-0.874
X5.0472Y-1.0157
X5.0472Y-6.0709
X5.0472Y-6.2126
X5.1181Y-0.8465
X5.1181Y-1.0433
X5.1181Y-6.0433
X5.1181Y-6.2402
X5.189Y-0.874
X5.189Y-1.0157
X5.189Y-6.0709
X5.189Y-6.2126
X5.2165Y-0.9449
X5.2165Y-6.1417
X8.1693Y-0.9449
X8.1693Y-6.1417
X8.1969Y-0.874
X8.1969Y-1.0157
X8.1969Y-6.0709
X8.1969Y-6.2126
X8.2677Y-0.8465
X8.2677Y-1.0433
X8.2677Y-6.0433
X8.2677Y-6.2402
X8.3386Y-0.874
X8.3386Y-1.0157
X8.3386Y-6.0709
X8.3386Y-6.2126
X8.3661Y-0.9449
X8.3661Y-6.1417
T15
X5.935Y-1.0512
X5.975Y-0.8512
X6.015Y-1.0512
T16
X5.1181Y-0.9449
X5.1181Y-6.1417
X8.2677Y-0.9449
X8.2677Y-6.1417
T4
X6.5482Y-0.8337G85X6.5482Y-0.8061
G05
X6.877Y-0.8337G85X6.877Y-0.8061
G05
T6
X6.625Y-0.9419G85X6.625Y-0.9341
G05
X6.8002Y-0.9419G85X6.8002Y-0.9341
G05
T9
X5.4055Y-1.122G85X5.4055Y-1.2008
G05
X5.6299Y-1.0433G85X5.5512Y-1.0433
G05
X5.6299Y-1.2795G85X5.5512Y-1.2795
G05
T0
M30
