G04 #@! TF.GenerationSoftware,KiCad,Pcbnew,no-vcs-found-40f60c9~58~ubuntu16.04.1*
G04 #@! TF.CreationDate,2017-03-31T16:44:17+01:00*
G04 #@! TF.ProjectId,bigtime,62696774696D652E6B696361645F7063,rev?*
G04 #@! TF.FileFunction,Soldermask,Bot*
G04 #@! TF.FilePolarity,Negative*
%FSLAX46Y46*%
G04 Gerber Fmt 4.6, Leading zero omitted, Abs format (unit mm)*
G04 Created by KiCad (PCBNEW no-vcs-found-40f60c9~58~ubuntu16.04.1) date Fri Mar 31 16:44:17 2017*
%MOMM*%
%LPD*%
G01*
G04 APERTURE LIST*
%ADD10C,0.100000*%
%ADD11R,1.900000X1.900000*%
%ADD12C,1.000000*%
%ADD13C,2.000000*%
%ADD14C,1.500000*%
%ADD15O,1.200000X1.500000*%
%ADD16C,3.300000*%
%ADD17C,1.524000*%
%ADD18R,3.500000X3.500000*%
%ADD19O,1.000000X1.250000*%
%ADD20O,1.000000X1.900000*%
%ADD21C,4.000000*%
%ADD22R,1.727200X1.727200*%
%ADD23O,1.727200X1.727200*%
%ADD24C,1.016000*%
%ADD25C,0.600000*%
%ADD26C,6.300000*%
G04 APERTURE END LIST*
D10*
D11*
X169940000Y-155990000D03*
X210370000Y-72070000D03*
D12*
X151766000Y-21620000D03*
X150750000Y-26700000D03*
X152782000Y-26700000D03*
D13*
X203470000Y-26430000D03*
D14*
X188490000Y-32140000D03*
X190770000Y-32140000D03*
X199920000Y-32140000D03*
X202200000Y-32140000D03*
D15*
X198900000Y-27320000D03*
X196870000Y-27320000D03*
X194840000Y-27320000D03*
X192810000Y-27320000D03*
X195850000Y-25540000D03*
X193820000Y-25540000D03*
X197890000Y-25540000D03*
X191790000Y-25540000D03*
D16*
X189000000Y-23000000D03*
X201700000Y-23000000D03*
D13*
X187220000Y-26430000D03*
D17*
X162970000Y-118520000D03*
X160430000Y-115980000D03*
X162970000Y-113440000D03*
D18*
X137300000Y-28000000D03*
X142000000Y-25000000D03*
X142000000Y-31000000D03*
D11*
X163210000Y-72160000D03*
X173460000Y-71310000D03*
X199710000Y-75000000D03*
X204640000Y-72240000D03*
D19*
X168275000Y-23500000D03*
X172725000Y-23500000D03*
D20*
X166325000Y-20500000D03*
X174675000Y-20500000D03*
D21*
X159840000Y-143500000D03*
X164920000Y-143500000D03*
X170000000Y-143500000D03*
X175080000Y-143500000D03*
X180160000Y-143500000D03*
X180160000Y-36500000D03*
X175080000Y-36500000D03*
X170000000Y-36500000D03*
X164920000Y-36500000D03*
X159840000Y-36500000D03*
D22*
X138000000Y-133000000D03*
D23*
X135460000Y-133000000D03*
X138000000Y-130460000D03*
X135460000Y-130460000D03*
X138000000Y-127920000D03*
X135460000Y-127920000D03*
X201460000Y-127920000D03*
X204000000Y-127920000D03*
X201460000Y-130460000D03*
X204000000Y-130460000D03*
X201460000Y-133000000D03*
D22*
X204000000Y-133000000D03*
D24*
X159365000Y-21645000D03*
X160635000Y-21645000D03*
X159365000Y-22915000D03*
X160635000Y-22915000D03*
X159365000Y-24185000D03*
X160635000Y-24185000D03*
X159365000Y-25455000D03*
X160635000Y-25455000D03*
X159365000Y-26725000D03*
X160635000Y-26725000D03*
D25*
X211800000Y-157800000D03*
X208200000Y-157800000D03*
X211800000Y-154200000D03*
X208200000Y-154200000D03*
X207500000Y-156000000D03*
X210000000Y-158500000D03*
X212500000Y-156000000D03*
X210000000Y-153500000D03*
D26*
X210000000Y-156000000D03*
X130000000Y-24000000D03*
D25*
X130000000Y-21500000D03*
X132500000Y-24000000D03*
X130000000Y-26500000D03*
X127500000Y-24000000D03*
X128200000Y-22200000D03*
X131800000Y-22200000D03*
X128200000Y-25800000D03*
X131800000Y-25800000D03*
X131800000Y-157800000D03*
X128200000Y-157800000D03*
X131800000Y-154200000D03*
X128200000Y-154200000D03*
X127500000Y-156000000D03*
X130000000Y-158500000D03*
X132500000Y-156000000D03*
X130000000Y-153500000D03*
D26*
X130000000Y-156000000D03*
X210000000Y-24000000D03*
D25*
X210000000Y-21500000D03*
X212500000Y-24000000D03*
X210000000Y-26500000D03*
X207500000Y-24000000D03*
X208200000Y-22200000D03*
X211800000Y-22200000D03*
X208200000Y-25800000D03*
X211800000Y-25800000D03*
M02*
