G04 #@! TF.GenerationSoftware,KiCad,Pcbnew,no-vcs-found-40f60c9~58~ubuntu16.04.1*
G04 #@! TF.CreationDate,2017-03-31T16:18:35+01:00*
G04 #@! TF.ProjectId,bigtime,62696774696D652E6B696361645F7063,rev?*
G04 #@! TF.FileFunction,Soldermask,Bot*
G04 #@! TF.FilePolarity,Negative*
%FSLAX46Y46*%
G04 Gerber Fmt 4.6, Leading zero omitted, Abs format (unit mm)*
G04 Created by KiCad (PCBNEW no-vcs-found-40f60c9~58~ubuntu16.04.1) date Fri Mar 31 16:18:35 2017*
%MOMM*%
%LPD*%
G01*
G04 APERTURE LIST*
%ADD10C,0.100000*%
%ADD11R,2.300000X2.300000*%
%ADD12C,1.400000*%
%ADD13C,2.400000*%
%ADD14C,1.900000*%
%ADD15O,1.600000X1.900000*%
%ADD16C,3.700000*%
%ADD17C,1.924000*%
%ADD18R,3.900000X3.900000*%
%ADD19O,1.400000X1.650000*%
%ADD20O,1.400000X2.300000*%
%ADD21C,4.400000*%
%ADD22R,2.127200X2.127200*%
%ADD23O,2.127200X2.127200*%
%ADD24C,1.416000*%
%ADD25C,1.000000*%
%ADD26C,6.300000*%
G04 APERTURE END LIST*
D10*
D11*
X169940000Y-155990000D03*
X210370000Y-72070000D03*
D12*
X151766000Y-21620000D03*
X150750000Y-26700000D03*
X152782000Y-26700000D03*
D13*
X203390000Y-28470000D03*
D14*
X188410000Y-34180000D03*
X190690000Y-34180000D03*
X199840000Y-34180000D03*
X202120000Y-34180000D03*
D15*
X198820000Y-29360000D03*
X196790000Y-29360000D03*
X194760000Y-29360000D03*
X192730000Y-29360000D03*
X195770000Y-27580000D03*
X193740000Y-27580000D03*
X197810000Y-27580000D03*
X191710000Y-27580000D03*
D16*
X188920000Y-25040000D03*
X201620000Y-25040000D03*
D13*
X187140000Y-28470000D03*
D17*
X162970000Y-118520000D03*
X160430000Y-115980000D03*
X162970000Y-113440000D03*
D18*
X137300000Y-29500000D03*
X142000000Y-26500000D03*
X142000000Y-32500000D03*
D11*
X163210000Y-72160000D03*
X173460000Y-71310000D03*
X199710000Y-75000000D03*
X204640000Y-72240000D03*
D19*
X168275000Y-23825000D03*
X172725000Y-23825000D03*
D20*
X166325000Y-20825000D03*
X174675000Y-20825000D03*
D21*
X159840000Y-143500000D03*
X164920000Y-143500000D03*
X170000000Y-143500000D03*
X175080000Y-143500000D03*
X180160000Y-143500000D03*
X180160000Y-36500000D03*
X175080000Y-36500000D03*
X170000000Y-36500000D03*
X164920000Y-36500000D03*
X159840000Y-36500000D03*
D22*
X138000000Y-133000000D03*
D23*
X135460000Y-133000000D03*
X138000000Y-130460000D03*
X135460000Y-130460000D03*
X138000000Y-127920000D03*
X135460000Y-127920000D03*
X201460000Y-127920000D03*
X204000000Y-127920000D03*
X201460000Y-130460000D03*
X204000000Y-130460000D03*
X201460000Y-133000000D03*
D22*
X204000000Y-133000000D03*
D24*
X159365000Y-21645000D03*
X160635000Y-21645000D03*
X159365000Y-22915000D03*
X160635000Y-22915000D03*
X159365000Y-24185000D03*
X160635000Y-24185000D03*
X159365000Y-25455000D03*
X160635000Y-25455000D03*
X159365000Y-26725000D03*
X160635000Y-26725000D03*
D25*
X211800000Y-157800000D03*
X208200000Y-157800000D03*
X211800000Y-154200000D03*
X208200000Y-154200000D03*
X207500000Y-156000000D03*
X210000000Y-158500000D03*
X212500000Y-156000000D03*
X210000000Y-153500000D03*
D26*
X210000000Y-156000000D03*
X130000000Y-24000000D03*
D25*
X130000000Y-21500000D03*
X132500000Y-24000000D03*
X130000000Y-26500000D03*
X127500000Y-24000000D03*
X128200000Y-22200000D03*
X131800000Y-22200000D03*
X128200000Y-25800000D03*
X131800000Y-25800000D03*
X131800000Y-157800000D03*
X128200000Y-157800000D03*
X131800000Y-154200000D03*
X128200000Y-154200000D03*
X127500000Y-156000000D03*
X130000000Y-158500000D03*
X132500000Y-156000000D03*
X130000000Y-153500000D03*
D26*
X130000000Y-156000000D03*
X210000000Y-24000000D03*
D25*
X210000000Y-21500000D03*
X212500000Y-24000000D03*
X210000000Y-26500000D03*
X207500000Y-24000000D03*
X208200000Y-22200000D03*
X211800000Y-22200000D03*
X208200000Y-25800000D03*
X211800000Y-25800000D03*
M02*
